<?xml version="1.0" standalone="no"?><!DOCTYPE svg PUBLIC "-//W3C//DTD SVG 1.1//EN" "http://www.w3.org/Graphics/SVG/1.1/DTD/svg11.dtd"><svg class="icon" width="200px" height="200.00px" viewBox="0 0 1024 1024" version="1.1" xmlns="http://www.w3.org/2000/svg"><path fill="#9CA6C7" d="M721.8432 303.104a48.4608 48.4608 0 0 0-68.4032 0l-141.9264 141.9264-136.2432-136.2688a46.976 46.976 0 1 0-66.4832 66.4832l136.2944 136.2432-141.952 141.952a48.384 48.384 0 0 0 68.4288 68.352l141.9264-141.9008 137.0368 137.0112a47.0016 47.0016 0 0 0 66.432-66.432l-137.0112-137.0368 141.9008-141.9008a48.4608 48.4608 0 0 0 0-68.4288M512 1024C229.248 1024 0 794.752 0 512 0 229.2224 229.248 0 512 0c282.7776 0 512 229.2224 512 512 0 282.752-229.2224 512-512 512"  /></svg>