<?xml version="1.0" standalone="no"?><!DOCTYPE svg PUBLIC "-//W3C//DTD SVG 1.1//EN" "http://www.w3.org/Graphics/SVG/1.1/DTD/svg11.dtd"><svg class="icon" width="200px" height="200.00px" viewBox="0 0 1024 1024" version="1.1" xmlns="http://www.w3.org/2000/svg"><path d="M0 0m358.4 0l307.2 0q358.4 0 358.4 358.4l0 307.2q0 358.4-358.4 358.4l-307.2 0q-358.4 0-358.4-358.4l0-307.2q0-358.4 358.4-358.4Z" fill="#F0F2F5" /><path d="M327.68 332.8h368.64c11.3152 0 20.48 8.9088 20.48 19.9168v318.5664a20.224 20.224 0 0 1-20.48 19.9168H327.68a20.224 20.224 0 0 1-20.48-19.9168V352.7168a20.224 20.224 0 0 1 20.48-19.9168z m241.5104 135.2448l-50.176 48.7936-43.4176-42.24-86.912 84.48 28.9536 28.16 57.9584-56.32 43.4176 42.24 79.1552-76.9536 36.7104 35.712v-99.584h-102.4l36.7104 35.712z" fill="#D2D3D6" /></svg>