<?xml version="1.0" standalone="no"?><!DOCTYPE svg PUBLIC "-//W3C//DTD SVG 1.1//EN" "http://www.w3.org/Graphics/SVG/1.1/DTD/svg11.dtd"><svg class="icon" width="200px" height="200.00px" viewBox="0 0 1024 1024" version="1.1" xmlns="http://www.w3.org/2000/svg"><path fill="#2878FF" d="M102.4 136.533333v716.8h819.2V136.533333H102.4zM51.2 34.133333h921.6A51.2 51.2 0 0 1 1024 85.333333v819.2a51.2 51.2 0 0 1-51.2 51.2h-921.6A51.2 51.2 0 0 1 0 904.533333v-819.2A51.2 51.2 0 0 1 51.2 34.133333z m603.818667 347.818667L563.2 290.133333H819.2V546.133333l-91.818667-91.818666-197.802666 197.8368-108.612267-108.578134-144.861867 144.7936-72.362666-72.3968 217.224533-217.224533 108.578133 108.612267 125.44-125.44z"  /></svg>