<?xml version="1.0" standalone="no"?><!DOCTYPE svg PUBLIC "-//W3C//DTD SVG 1.1//EN" "http://www.w3.org/Graphics/SVG/1.1/DTD/svg11.dtd"><svg class="icon" width="200px" height="200.00px" viewBox="0 0 1024 1024" version="1.1" xmlns="http://www.w3.org/2000/svg"><path fill="#2878FF" d="M51.2 34.133333h921.6A51.2 51.2 0 0 1 1024 85.333333v819.2a51.2 51.2 0 0 1-51.2 51.2h-921.6A51.2 51.2 0 0 1 0 904.533333v-819.2A51.2 51.2 0 0 1 51.2 34.133333zM921.6 597.333333h-174.8992a256.034133 256.034133 0 0 1-469.4016 0H102.4V853.333333h819.2v-256z m0-102.4V136.533333H102.4v358.4h256a153.6 153.6 0 1 0 307.2 0H921.6z"  /></svg>