<?xml version="1.0" standalone="no"?><!DOCTYPE svg PUBLIC "-//W3C//DTD SVG 1.1//EN" "http://www.w3.org/Graphics/SVG/1.1/DTD/svg11.dtd"><svg class="icon" width="200px" height="200.00px" viewBox="0 0 1024 1024" version="1.1" xmlns="http://www.w3.org/2000/svg"><path fill="#2878FF" d="M438.852267 464.213333V320.853333L682.666667 512l-243.8144 191.146667v-143.36H0v-95.573334h438.852267zM34.133333 665.6h107.588267c72.9088 181.521067 262.7584 285.457067 453.0176 248.046933 190.2592-37.410133 327.68-205.7216 327.953067-401.646933 0.1024-196.130133-137.352533-364.817067-327.816534-402.295467C404.411733 72.260267 214.357333 176.5376 141.7216 358.4H34.133333C98.645333 150.698667 290.645333 0 517.461333 0 797.218133 0 1024 229.205333 1024 512s-226.781867 512-506.538667 512C290.645333 1024 98.645333 873.301333 34.133333 665.6z"  /></svg>