<?xml version="1.0" standalone="no"?><!DOCTYPE svg PUBLIC "-//W3C//DTD SVG 1.1//EN" "http://www.w3.org/Graphics/SVG/1.1/DTD/svg11.dtd"><svg class="icon" width="200px" height="200.00px" viewBox="0 0 1024 1024" version="1.1" xmlns="http://www.w3.org/2000/svg"><path fill="#2878FF" d="M585.147733 464.213333V320.853333L341.333333 512l243.8144 191.146667v-143.36H1024v-95.573334H585.147733zM989.866667 665.6h-107.588267c-72.9088 181.521067-262.7584 285.457067-453.0176 248.046933C239.0016 876.2368 101.5808 707.925333 101.307733 512 101.205333 315.869867 238.660267 147.182933 429.124267 109.704533c190.464-37.444267 380.484267 66.833067 453.154133 248.695467H989.866667C925.354667 150.698667 733.354667 0 506.538667 0 226.781867 0 0 229.205333 0 512s226.781867 512 506.538667 512c226.816 0 418.816-150.698667 483.328-358.4z"  /></svg>