<?xml version="1.0" standalone="no"?><!DOCTYPE svg PUBLIC "-//W3C//DTD SVG 1.1//EN" "http://www.w3.org/Graphics/SVG/1.1/DTD/svg11.dtd"><svg t="1581931209906" class="icon" viewBox="0 0 1024 1024" version="1.1" xmlns="http://www.w3.org/2000/svg" p-id="7093" xmlns:xlink="http://www.w3.org/1999/xlink" width="200" height="200"><defs><style type="text/css"></style></defs><path d="M204.288 160.995556h615.424C916.821333 160.995556 995.555556 239.587556 995.555556 336.497778v438.755555c0 96.910222-78.734222 175.502222-175.843556 175.502223H204.288C107.178667 950.727111 28.444444 872.135111 28.444444 775.224889V336.497778c0-96.910222 78.734222-175.502222 175.843556-175.502222z" fill="#2C2F53" p-id="7094"></path><path d="M819.712 599.751111H204.288C107.178667 599.751111 28.444444 521.187556 28.444444 424.248889v351.004444c0 96.910222 78.734222 175.502222 175.843556 175.502223h615.424c97.109333 0 175.843556-78.592 175.843556-175.502223v-351.004444c0 96.938667-78.734222 175.502222-175.843556 175.502222z" fill="#2C2F53" p-id="7095"></path><path d="M819.712 512H204.288C107.178667 512 28.444444 433.436444 28.444444 336.497778v438.755555c0 96.910222 78.734222 175.502222 175.843556 175.502223h615.424c97.109333 0 175.843556-78.592 175.843556-175.502223V336.497778c0 96.938667-78.734222 175.502222-175.843556 175.502222z" fill="#1E2147" p-id="7096"></path><path d="M204.288 160.995556h43.946667v789.731555H204.288C107.178667 950.727111 28.444444 872.163556 28.444444 775.224889V336.497778c0-96.910222 78.734222-175.502222 175.843556-175.502222z" fill="#7C7F95" p-id="7097"></path><path d="M138.325333 512a109.795556 109.795556 0 0 1 109.909334 109.681778 109.795556 109.795556 0 0 1-109.880889 109.681778A109.795556 109.795556 0 0 1 28.444444 621.681778 109.795556 109.795556 0 0 1 138.325333 512z" fill="#4C4F6E" p-id="7098"></path><path d="M248.234667 160.995556H204.288C107.178667 160.995556 28.444444 239.587556 28.444444 336.497778V512h219.790223V160.995556z" fill="#CACAD4" p-id="7099"></path><path d="M819.712 950.727111h-43.946667V160.995556h43.946667C916.821333 160.995556 995.555556 239.587556 995.555556 336.497778v438.755555c0 96.910222-78.734222 175.502222-175.843556 175.502223z" fill="#7C7F95" p-id="7100"></path><path d="M885.646222 512A109.795556 109.795556 0 0 1 995.555556 621.681778a109.795556 109.795556 0 0 1-109.880889 109.681778 109.795556 109.795556 0 0 1-109.909334-109.681778A109.795556 109.795556 0 0 1 885.646222 512z" fill="#4C4F6E" p-id="7101"></path><path d="M775.765333 160.995556h43.946667C916.821333 160.995556 995.555556 239.587556 995.555556 336.497778V512h-219.790223V160.995556z" fill="#CACAD4" p-id="7102"></path><path d="M248.234667 775.253333h527.530666c24.263111 0 43.946667 19.626667 43.946667 43.861334v43.889777c0 24.206222-19.683556 43.861333-43.946667 43.861334H248.234667c-24.263111 0-43.946667-19.626667-43.946667-43.861334v-43.889777c0-24.234667 19.683556-43.861333 43.946667-43.861334z" fill="#080B36" p-id="7103"></path><path d="M248.234667 204.885333h527.530666c24.263111 0 43.946667 19.626667 43.946667 43.861334v43.889777c0 24.234667-19.683556 43.861333-43.946667 43.861334H248.234667c-24.263111 0-43.946667-19.626667-43.946667-43.861334V248.746667c0-24.206222 19.683556-43.861333 43.946667-43.861334z" fill="#2C2F53" p-id="7104"></path><path d="M292.209778 73.272889h439.580444a87.836444 87.836444 0 0 1 87.921778 87.722667v131.640888c0 24.234667-19.683556 43.861333-43.946667 43.861334H248.234667c-24.263111 0-43.946667-19.626667-43.946667-43.861334V160.995556a87.836444 87.836444 0 0 1 87.893333-87.722667z" fill="#2C2F53" p-id="7105"></path><path d="M336.156444 29.383111h351.687112a87.836444 87.836444 0 0 1 87.893333 87.751111v219.363556H248.263111V117.134222a87.836444 87.836444 0 0 1 87.921778-87.751111z" fill="#CACAD4" p-id="7106"></path><path d="M336.156444 204.885333h351.687112a87.836444 87.836444 0 0 1 87.893333 87.751111v43.861334H248.263111v-43.861334a87.836444 87.836444 0 0 1 87.921778-87.751111z" fill="#EAEAEE" p-id="7107"></path><path d="M775.765333 160.995556h43.946667v131.640888c0 24.234667-19.683556 43.861333-43.946667 43.861334h-43.975111V204.885333c0-24.234667 19.683556-43.889778 43.975111-43.889777zM292.209778 336.497778H248.234667c-24.263111 0-43.946667-19.626667-43.946667-43.861334V160.995556h43.946667c24.291556 0 43.975111 19.655111 43.975111 43.889777v131.612445z" fill="#4C4F6E" p-id="7108"></path><path d="M248.234667 775.253333L207.473778 934.4a43.861333 43.861333 0 0 0 40.817778 60.188444H775.68a43.918222 43.918222 0 0 0 40.817778-60.188444l-40.760889-159.175111H248.234667z" fill="#EAEAEE" p-id="7109"></path><path d="M292.209778 819.114667h439.580444c24.291556 0 43.975111-19.626667 43.975111-43.861334H248.234667c0 24.206222 19.683556 43.861333 43.975111 43.861334z" fill="#CACAD4" p-id="7110"></path><path d="M116.366222 424.248889h43.946667A87.836444 87.836444 0 0 1 248.234667 512a87.836444 87.836444 0 0 1-87.893334 87.751111H116.337778A87.836444 87.836444 0 0 1 28.444444 512a87.836444 87.836444 0 0 1 87.921778-87.751111zM863.687111 424.248889h43.946667A87.836444 87.836444 0 0 1 995.555556 512a87.836444 87.836444 0 0 1-87.921778 87.751111h-43.946667A87.836444 87.836444 0 0 1 775.765333 512a87.836444 87.836444 0 0 1 87.893334-87.751111z" fill="#EAEAEE" p-id="7111"></path><path d="M270.222222 380.387556c12.145778 0 21.987556 9.813333 21.987556 21.902222v175.502222a21.959111 21.959111 0 0 1-43.975111 0v-175.502222c0-12.088889 9.841778-21.902222 21.987555-21.902222z" fill="#1E2147" p-id="7112"></path><path d="M907.633778 665.543111a21.959111 21.959111 0 1 1-43.918222 0 21.959111 21.959111 0 0 1 43.918222 0z" fill="#48E1F4" p-id="7113"></path><path d="M358.144 819.114667h307.712a21.959111 21.959111 0 1 1 0 43.861333H358.144a21.959111 21.959111 0 1 1 0-43.861333zM314.197333 906.865778h395.605334a21.959111 21.959111 0 1 1 0 43.861333H314.197333a21.959111 21.959111 0 1 1 0-43.861333z" fill="#2C2F53" p-id="7114"></path><path d="M314.197333 292.636444h395.605334a21.959111 21.959111 0 1 1 0 43.861334H314.197333a21.959111 21.959111 0 1 1 0-43.861334z" fill="#CACAD4" p-id="7115"></path><path d="M314.197333 336.497778h395.605334a21.959111 21.959111 0 1 1 0 43.889778H314.197333a21.959111 21.959111 0 1 1 0-43.889778z" fill="#7C7F95" p-id="7116"></path><path d="M270.222222 512c12.145778 0 21.987556 9.813333 21.987556 21.930667v219.363555a21.959111 21.959111 0 0 1-43.975111 0v-219.363555c0-12.117333 9.841778-21.930667 21.987555-21.930667z" fill="#080B36" p-id="7117"></path><path d="M753.777778 380.387556c12.145778 0 21.987556 9.813333 21.987555 21.902222v175.502222a21.959111 21.959111 0 0 1-43.975111 0v-175.502222c0-12.088889 9.841778-21.902222 21.987556-21.902222z" fill="#1E2147" p-id="7118"></path><path d="M753.777778 512c12.145778 0 21.987556 9.813333 21.987555 21.930667v219.363555a21.959111 21.959111 0 0 1-43.975111 0v-219.363555c0-12.117333 9.841778-21.930667 21.987556-21.930667z" fill="#080B36" p-id="7119"></path><path d="M336.156444 424.248889h351.687112A87.836444 87.836444 0 0 1 775.736889 512a87.836444 87.836444 0 0 1-87.893333 87.751111H336.156444A87.836444 87.836444 0 0 1 248.263111 512a87.836444 87.836444 0 0 1 87.893333-87.751111z" fill="#4C4F6E" p-id="7120"></path><path d="M182.300444 213.219556a21.959111 21.959111 0 0 0-21.987555 21.930666v2.417778c0 0.398222 0 0.796444 0.056889 1.194667a21.788444 21.788444 0 0 0-0.056889 1.223111v52.622222c0.028444 31.374222 16.782222 60.302222 43.975111 76.003556v187.249777a21.959111 21.959111 0 0 0 43.946667 0.056889V336.497778c-24.263111 0-43.946667-19.626667-43.946667-43.861334V239.985778l-0.028444-1.223111v-3.612445a21.959111 21.959111 0 0 0-21.959112-21.930666z" fill="#EAEAEE" p-id="7121"></path><path d="M226.247111 512c12.145778 0 21.987556 9.813333 21.987556 21.930667v219.363555a21.959111 21.959111 0 0 1-43.946667 0v-219.363555c0-12.117333 9.841778-21.930667 21.959111-21.930667z" fill="#999AAC" p-id="7122"></path><path d="M841.699556 213.219556a21.959111 21.959111 0 0 0-21.987556 21.930666v2.417778l0.028444 1.194667a21.816889 21.816889 0 0 0 0 1.223111v52.622222c0 24.263111-19.712 43.889778-43.975111 43.889778v219.363555a21.959111 21.959111 0 0 0 43.946667 0V368.64a87.751111 87.751111 0 0 0 43.946667-75.975111V239.985778v-1.223111-3.612445a21.959111 21.959111 0 0 0-21.959111-21.930666z" fill="#EAEAEE" p-id="7123"></path><path d="M797.752889 775.253333a21.959111 21.959111 0 0 1-21.987556-21.959111v-219.363555a21.959111 21.959111 0 0 1 43.946667 0v219.363555a21.959111 21.959111 0 0 1-21.959111 21.959111z" fill="#999AAC" p-id="7124"></path></svg>