<?xml version="1.0" encoding="UTF-8"?>
<svg width="24px" height="24px" viewBox="0 0 24 24" version="1.1" xmlns="http://www.w3.org/2000/svg" xmlns:xlink="http://www.w3.org/1999/xlink">
    <!-- Generator: Sketch 52.6 (67491) - http://www.bohemiancoding.com/sketch -->
    <title>DR</title>
    <desc>Created with Sketch.</desc>
    <defs>
        <linearGradient x1="76.5644061%" y1="92.5987804%" x2="5.47990896%" y2="0%" id="linearGradient-1">
            <stop stop-color="#08B6FF" offset="0%"></stop>
            <stop stop-color="#6285F6" offset="100%"></stop>
        </linearGradient>
        <linearGradient x1="100%" y1="50%" x2="28.8577457%" y2="29.605558%" id="linearGradient-2">
            <stop stop-color="#08B6FF" offset="0%"></stop>
            <stop stop-color="#3397FF" offset="100%"></stop>
        </linearGradient>
        <linearGradient x1="50%" y1="18.9123731%" x2="50%" y2="90.7641525%" id="linearGradient-3">
            <stop stop-color="#1CBCFF" offset="0%"></stop>
            <stop stop-color="#2E94FF" offset="100%"></stop>
        </linearGradient>
        <linearGradient x1="50%" y1="26.3438341%" x2="50%" y2="88.2027815%" id="linearGradient-4">
            <stop stop-color="#00E6E4" offset="0%"></stop>
            <stop stop-color="#28FFFD" offset="100%"></stop>
        </linearGradient>
        <linearGradient x1="56.3882308%" y1="113.593993%" x2="56.3882308%" y2="39.3626109%" id="linearGradient-5">
            <stop stop-color="#45FFCA" offset="0%"></stop>
            <stop stop-color="#3396FF" offset="100%"></stop>
        </linearGradient>
    </defs>
    <g id="组件" stroke="none" stroke-width="1" fill="none" fill-rule="evenodd">
        <g id="header" transform="translate(-16.000000, -18.000000)">
            <g id="DR">
                <g transform="translate(17.000000, 18.000000)">
                    <ellipse id="椭圆形" fill="url(#linearGradient-1)" cx="3.45628415" cy="3.52941176" rx="3.45628415" ry="3.52941176"></ellipse>
                    <path d="M3.90462181,0.0448194257 C7.78480431,0.0291861476 11.709512,0.0291861476 15.6787448,0.0448194257 C18.2749142,0.085568083 22.8758624,1.60727375 22.877963,8.01536922 C22.877963,11.4003591 19.7278008,14.2196826 18.6253949,15.180885 C17.5486729,13.539666 17.1294389,12.4084908 16.1156929,10.6419801 C17.6695193,9.77332282 18.2876881,8.01536922 16.9368654,6.62054152 C15.4686586,5.29666709 10.2341925,6.39985708 8.70251305,5.73467211 C6.35809798,4.57206488 4.7588009,2.67544732 3.90462181,0.0448194257 Z" id="路径-3" fill="url(#linearGradient-2)"></path>
                    <path d="M4.00611722,0.0444141058 C5.65365357,0.31335243 6.91256831,1.77125387 6.91256831,3.52941176 C6.91256831,3.85976283 6.86812238,4.17951335 6.78500375,4.48276796 C5.46136548,3.36154378 4.50123817,1.88222761 3.90462181,0.0448194257 C3.93845023,0.0446831308 3.97228203,0.0445480241 4.00611722,0.0444141058 Z" id="合并形状" fill="#37FFFD" opacity="0.9"></path>
                    <path d="M3.90462181,0.0330944671 C3.90462181,3.51073148 3.90462181,11.4598362 3.90462181,23.8804085 C7.63455791,22.4610136 9.49952596,20.3251898 9.49952596,17.4729372 C9.49952596,14.6206846 9.49952596,10.7523521 9.49952596,5.86793983 C6.80734259,5.00636523 4.94237454,3.06141678 3.90462181,0.0330944671 Z" id="路径-4" fill="url(#linearGradient-3)"></path>
                    <path d="M6.80014253,4.42568213 C6.44849321,5.79749288 5.30872841,6.84368451 3.90462181,7.02940143 C3.90462181,3.86529908 3.90462181,1.53319676 3.90462181,0.0330944671 C4.54993077,1.91620542 5.51510434,3.38040131 6.80014253,4.42568213 Z" id="合并形状" fill="url(#linearGradient-4)" opacity="0.9"></path>
                    <path d="M16.1159924,10.6403409 L10.1500962,10.6403409 C12.7483346,17.1188473 14.658948,21.0320572 15.8819363,22.3799706 C17.6392198,24.0425321 20.0065589,24.183646 22.9839536,22.8033121 L16.1159924,10.6403409 Z" id="路径-5" fill="url(#linearGradient-5)"></path>
                </g>
            </g>
        </g>
    </g>
</svg>