<?xml version="1.0" standalone="no"?><!DOCTYPE svg PUBLIC "-//W3C//DTD SVG 1.1//EN" "http://www.w3.org/Graphics/SVG/1.1/DTD/svg11.dtd"><svg class="icon" width="200px" height="200.00px" viewBox="0 0 1024 1024" version="1.1" xmlns="http://www.w3.org/2000/svg"><path d="M0 0m358.4 0l307.2 0q358.4 0 358.4 358.4l0 307.2q0 358.4-358.4 358.4l-307.2 0q-358.4 0-358.4-358.4l0-307.2q0-358.4 358.4-358.4Z" fill="#E9F1FF" /><path d="M348.16 332.8h327.68l40.96 79.6416v258.8416a20.224 20.224 0 0 1-20.48 19.9168H327.68a20.224 20.224 0 0 1-20.48-19.9168V412.5184L348.16 332.8z m143.36 219.0336v79.616h40.96v-79.616h61.44L512 472.1664l-81.92 79.6672h61.44z m179.4816-139.392l-20.48-39.808H373.504l-20.48 39.808H670.976z" fill="#2878FF" /></svg>