<?xml version="1.0" standalone="no"?><!DOCTYPE svg PUBLIC "-//W3C//DTD SVG 1.1//EN" "http://www.w3.org/Graphics/SVG/1.1/DTD/svg11.dtd"><svg class="icon" width="200px" height="200.00px" viewBox="0 0 1024 1024" version="1.1" xmlns="http://www.w3.org/2000/svg"><path d="M0 0m307.2 0l409.6 0q307.2 0 307.2 307.2l0 409.6q0 307.2-307.2 307.2l-409.6 0q-307.2 0-307.2-307.2l0-409.6q0-307.2 307.2-307.2Z" fill="#E9F1FF" /><path d="M512 716.8a204.8 204.8 0 1 1 0-409.6 204.8 204.8 0 0 1 0 409.6z m-36.1984-204.8l-39.8336 39.8336a10.24 10.24 0 0 0 0 14.464l21.7344 21.7344a10.24 10.24 0 0 0 14.464 0L512 548.1984l39.8336 39.8336a10.24 10.24 0 0 0 14.464 0l21.7344-21.7344a10.24 10.24 0 0 0 0-14.464L548.1984 512l39.8336-39.8336a10.24 10.24 0 0 0 0-14.464l-21.7344-21.7344a10.24 10.24 0 0 0-14.464 0L512 475.8016l-39.8336-39.8336a10.24 10.24 0 0 0-14.464 0l-21.7344 21.7344a10.24 10.24 0 0 0 0 14.464L475.8016 512z" fill="#2878FF" /></svg>