<?xml version="1.0" standalone="no"?><!DOCTYPE svg PUBLIC "-//W3C//DTD SVG 1.1//EN" "http://www.w3.org/Graphics/SVG/1.1/DTD/svg11.dtd"><svg class="icon" width="200px" height="200.00px" viewBox="0 0 1024 1024" version="1.1" xmlns="http://www.w3.org/2000/svg"><path fill="#E24156" d="M768 204.8H1024v102.4h-102.4v665.6a51.2 51.2 0 0 1-51.2 51.2H153.6a51.2 51.2 0 0 1-51.2-51.2V307.2H0V204.8h256V51.2a51.2 51.2 0 0 1 51.2-51.2h409.6a51.2 51.2 0 0 1 51.2 51.2v153.6z m51.2 102.4H204.8v614.4h614.4V307.2zM584.411429 614.4l90.477714 90.550857-72.411429 72.411429L512 686.811429l-90.550857 90.477714-72.411429-72.411429L439.588571 614.4 349.110857 523.849143l72.411429-72.411429L512 541.988571l90.550857-90.477714 72.411429 72.411429L584.411429 614.4z m-226.011429-512v102.4h307.2V102.4H358.4z"  /></svg>