<?xml version="1.0" standalone="no"?><!DOCTYPE svg PUBLIC "-//W3C//DTD SVG 1.1//EN" "http://www.w3.org/Graphics/SVG/1.1/DTD/svg11.dtd"><svg t="1581931605665" class="icon" viewBox="0 0 1024 1024" version="1.1" xmlns="http://www.w3.org/2000/svg" p-id="7242" xmlns:xlink="http://www.w3.org/1999/xlink" width="200" height="200"><defs><style type="text/css"></style></defs><path d="M57.897058 186.163718v-23.26691C57.897058 72.92953 130.99725 0 221.163634 0c90.166384 0 163.266576 72.92953 163.266576 162.896808v116.36299h-233.237965a93.209855 93.209855 0 0 1-93.295187-93.09608z" fill="#007CA4" p-id="7243"></path><path d="M450.419488 911.619122l381.201856-380.348546a66.074609 66.074609 0 0 1 93.295186 0 65.704842 65.704842 0 0 1 0 93.067637L543.714675 1004.686759a66.074609 66.074609 0 0 1-93.295187 0 65.704842 65.704842 0 0 1 0-93.096081z" fill="#1E2147" p-id="7244"></path><path d="M501.077637 558.519597a69.886059 69.886059 0 0 1 69.971389 69.829171v325.793617A69.886059 69.886059 0 0 1 501.077637 1023.971556a69.886059 69.886059 0 0 1-69.97139-69.829171V628.348768a69.886059 69.886059 0 0 1 69.97139-69.829171z" fill="#2C2F53" p-id="7245"></path><path d="M454.430044 698.149496c12.884975 0 23.323797 10.438821 23.323796 23.295353v186.163717a23.295353 23.295353 0 0 1-46.647593 0v-186.163717a23.323797 23.323797 0 0 1 23.323797-23.295353z" fill="#4C4F6E" p-id="7246"></path><path d="M571.049026 418.889698h-139.942779l-93.295186 186.192161h326.533152z" fill="#2C2F53" p-id="7247"></path><path d="M477.75384 418.889698h-46.647593l-93.295186 186.192161h233.237965z" fill="#4C4F6E" p-id="7248"></path><path d="M384.458654 372.355879h233.237966c25.769951 0 46.647593 20.849199 46.647593 46.533819 0 25.713064-20.877642 46.562262-46.647593 46.562262h-233.237966c-25.769951 0-46.647593-20.849199-46.647593-46.562262 0-25.68462 20.877642-46.533819 46.647593-46.533819z" fill="#1E2147" p-id="7249"></path><path d="M384.458654 372.355879h93.295186c25.769951 0 46.647593 20.849199 46.647593 46.533819 0 25.713064-20.877642 46.562262-46.647593 46.562262h-93.295186c-25.769951 0-46.647593-20.849199-46.647593-46.562262 0-25.68462 20.877642-46.533819 46.647593-46.533819z" fill="#2C2F53" p-id="7250"></path><path d="M291.135024 325.82206h419.828338c25.798394 0 46.676037 20.820755 46.676037 46.533819 0 25.713064-20.877642 46.533819-46.647593 46.533819h-419.828338c-25.769951 0-46.647593-20.820755-46.647593-46.533819 0-25.713064 20.877642-46.533819 46.647593-46.533819z" fill="#1E2147" p-id="7251"></path><path d="M291.135024 325.82206h139.942779c25.769951 0 46.647593 20.820755 46.647594 46.533819 0 25.713064-20.877642 46.533819-46.647594 46.533819h-139.942779c-25.741507 0-46.647593-20.820755-46.647593-46.533819 0-25.713064 20.906086-46.533819 46.647593-46.533819z" fill="#2C2F53" p-id="7252"></path><path d="M267.811227 46.533819h466.504375c90.166384 0 163.266576 72.957973 163.266576 162.925252s-73.100192 162.896808-163.266576 162.896808h-466.475931c-90.166384 0-163.266576-72.92953-163.266576-162.896808 0-89.967279 73.100192-162.925252 163.266576-162.925252z" fill="#2C2F53" p-id="7253"></path><path d="M571.049026 232.72598h233.237966c25.769951 0 46.647593 20.820755 46.647593 46.533818 0 25.713064-20.877642 46.562262-46.647593 46.562262h-233.237966c-25.769951 0-46.647593-20.849199-46.647593-46.562262s20.877642-46.533819 46.647593-46.533818z" fill="#1E2147" p-id="7254"></path><path d="M384.458654 558.519597h233.237966c25.769951 0 46.647593 20.849199 46.647593 46.562262 0 25.68462-20.877642 46.533819-46.647593 46.533818h-233.237966c-25.769951 0-46.647593-20.849199-46.647593-46.533818 0-25.713064 20.877642-46.562262 46.647593-46.562262z" fill="#4C4F6E" p-id="7255"></path><path d="M384.458654 558.519597h139.942779c25.741507 0 46.647593 20.849199 46.647593 46.562262 0 25.68462-20.877642 46.533819-46.647593 46.533818h-139.942779c-25.769951 0-46.647593-20.849199-46.647593-46.533818 0-25.713064 20.877642-46.562262 46.647593-46.562262z" fill="#7C7F95" p-id="7256"></path><path d="M431.106247 209.459071c0 89.967279-73.100192 162.896808-163.266576 162.896808-90.166384 0-163.266576-72.92953-163.266576-162.896808 0-89.967279 73.100192-162.925252 163.266576-162.925252 90.166384 0 163.266576 72.957973 163.266576 162.925252z" fill="#4C4F6E" p-id="7257"></path><path d="M384.458654 209.459071a116.505208 116.505208 0 0 1-116.618983 116.334546 116.505208 116.505208 0 0 1-116.618983-116.334546c0-64.282659 52.194106-116.36299 116.618983-116.36299 64.396433 0 116.618983 52.080331 116.618983 116.334546z" fill="#2C2F53" p-id="7258"></path><path d="M337.811061 209.459071a69.886059 69.886059 0 0 1-69.97139 69.800727 69.886059 69.886059 0 0 1-69.97139-69.800727 69.914502 69.914502 0 0 1 69.97139-69.829172c38.626483 0 69.97139 31.28802 69.97139 69.829172z" fill="#00AACC" p-id="7259"></path><path d="M291.135024 186.163718c0 25.713064-20.877642 46.562262-46.647593 46.562262-25.741507 0-46.647593-20.849199-46.647593-46.562262 0-25.68462 20.906086-46.533819 46.647593-46.533819 25.769951 0 46.647593 20.849199 46.647593 46.533819z" fill="#BCF4F5" p-id="7260"></path><path d="M780.963195 0H221.192078c90.166384 0 163.266576 72.92953 163.266576 162.896808v23.26691a93.181412 93.181412 0 0 0 93.295186 93.09608h373.180745a93.181412 93.181412 0 0 0 93.295186-93.09608v-23.26691c0-89.967279-73.100192-162.896808-163.266576-162.896808z" fill="#11CBE5" p-id="7261"></path><path d="M477.75384 186.163718h373.180745c25.769951 0 46.647593 20.849199 46.647593 46.562262 0 25.68462-20.877642 46.533819-46.647593 46.533818h-373.180745c-25.769951 0-46.647593-20.820755-46.647593-46.533818 0-25.713064 20.877642-46.562262 46.647593-46.562262z" fill="#00AACC" p-id="7262"></path><path d="M431.106247 0h373.180745c25.769951 0 46.647593 20.849199 46.647593 46.533819 0 25.713064-20.877642 46.562262-46.647593 46.562262h-373.180745c-25.769951 0-46.647593-20.849199-46.647593-46.562262 0-25.68462 20.877642-46.533819 46.647593-46.533819z" fill="#91EDF8" p-id="7263"></path></svg>