<?xml version="1.0" standalone="no"?><!DOCTYPE svg PUBLIC "-//W3C//DTD SVG 1.1//EN" "http://www.w3.org/Graphics/SVG/1.1/DTD/svg11.dtd"><svg class="icon" width="200px" height="200.00px" viewBox="0 0 1024 1024" version="1.1" xmlns="http://www.w3.org/2000/svg"><path d="M0 0m358.4 0l307.2 0q358.4 0 358.4 358.4l0 307.2q0 358.4-358.4 358.4l-307.2 0q-358.4 0-358.4-358.4l0-307.2q0-358.4 358.4-358.4Z" fill="#F0F2F5" /><path d="M465.2288 488.96H281.6c11.5456-116.4288 110.0288-207.36 229.8112-207.36C639.0016 281.6 742.4 384.768 742.4 512s-103.424 230.4-230.9888 230.4C391.68 742.4 293.1712 651.4688 281.6 535.04h183.6288v69.12l115.4816-92.16-115.4816-92.16v69.12z" fill="#D2D3D6" /></svg>