<?xml version="1.0" standalone="no"?><!DOCTYPE svg PUBLIC "-//W3C//DTD SVG 1.1//EN" "http://www.w3.org/Graphics/SVG/1.1/DTD/svg11.dtd"><svg t="1581931614308" class="icon" viewBox="0 0 1024 1024" version="1.1" xmlns="http://www.w3.org/2000/svg" p-id="7381" xmlns:xlink="http://www.w3.org/1999/xlink" width="200" height="200"><defs><style type="text/css"></style></defs><path d="M207.644444 0h603.022223c51.2 0 93.866667 42.666667 93.866666 93.866667v833.422222c0 51.2-42.666667 93.866667-93.866666 93.866667H207.644444c-51.2 0-93.866667-42.666667-93.866666-93.866667V93.866667C116.622222 42.666667 156.444444 0 207.644444 0z" fill="#2C2F53" p-id="7382"></path><path d="M207.644444 0h512c51.2 0 93.866667 42.666667 93.866667 93.866667v833.422222c0 51.2-42.666667 93.866667-93.866667 93.866667h-512c-51.2 0-93.866667-42.666667-93.866666-93.866667V93.866667C116.622222 42.666667 156.444444 0 207.644444 0z" fill="#4C4F6E" p-id="7383"></path><path d="M347.022222 648.533333c0 25.6-19.911111 45.511111-45.511111 45.511111-25.6 0-45.511111-19.911111-45.511111-45.511111 0-25.6 19.911111-45.511111 45.511111-45.511111 25.6 0 45.511111 19.911111 45.511111 45.511111zM347.022222 787.911111c0 25.6-19.911111 45.511111-45.511111 45.511111-25.6 0-45.511111-19.911111-45.511111-45.511111 0-25.6 19.911111-45.511111 45.511111-45.511111 25.6 0 45.511111 19.911111 45.511111 45.511111zM347.022222 927.288889c0 25.6-19.911111 45.511111-45.511111 45.511111-25.6 0-45.511111-19.911111-45.511111-45.511111 0-25.6 19.911111-45.511111 45.511111-45.511111 25.6 0 45.511111 19.911111 45.511111 45.511111zM534.755556 648.533333c0 25.6-19.911111 45.511111-45.511112 45.511111-25.6 0-45.511111-19.911111-45.511111-45.511111 0-25.6 19.911111-45.511111 45.511111-45.511111 22.755556 0 45.511111 19.911111 45.511112 45.511111zM534.755556 787.911111c0 25.6-19.911111 45.511111-45.511112 45.511111-25.6 0-45.511111-19.911111-45.511111-45.511111 0-25.6 19.911111-45.511111 45.511111-45.511111 22.755556 0 45.511111 19.911111 45.511112 45.511111zM534.755556 927.288889c0 25.6-19.911111 45.511111-45.511112 45.511111-25.6 0-45.511111-19.911111-45.511111-45.511111 0-25.6 19.911111-45.511111 45.511111-45.511111 22.755556 0 45.511111 19.911111 45.511112 45.511111zM719.644444 648.533333c0 25.6-19.911111 45.511111-45.511111 45.511111s-48.355556-19.911111-48.355555-45.511111c0-25.6 19.911111-45.511111 45.511111-45.511111s48.355556 19.911111 48.355555 45.511111z" fill="#2C2F53" p-id="7384"></path><path d="M719.644444 787.911111c0 25.6-19.911111 45.511111-45.511111 45.511111s-48.355556-19.911111-48.355555-45.511111c0-25.6 19.911111-45.511111 45.511111-45.511111s48.355556 19.911111 48.355555 45.511111zM719.644444 927.288889c0 25.6-19.911111 45.511111-45.511111 45.511111s-48.355556-19.911111-48.355555-45.511111c0-25.6 19.911111-45.511111 45.511111-45.511111s48.355556 19.911111 48.355555 45.511111z" fill="#4C4F6E" p-id="7385"></path><path d="M674.133333 742.4c25.6 0 45.511111 19.911111 45.511111 45.511111v139.377778c0 25.6-19.911111 45.511111-45.511111 45.511111-25.6 0-45.511111-19.911111-45.511111-45.511111v-139.377778c-2.844444-25.6 19.911111-45.511111 45.511111-45.511111z" fill="#2C2F53" p-id="7386"></path><path d="M836.266667 409.6c-14.222222 0-22.755556 11.377778-22.755556 22.755556v494.933333c-2.844444 17.066667-8.533333 31.288889-19.911111 45.511111-8.533333 11.377778-5.688889 25.6 2.844444 31.288889 11.377778 8.533333 25.6 5.688889 31.288889-2.844445 19.911111-25.6 28.444444-54.044444 28.444445-85.333333v-483.555555c2.844444-11.377778-8.533333-22.755556-19.911111-22.755556z" fill="#1E2147" p-id="7387"></path><path d="M739.555556 438.044444s164.977778-34.133333 164.977777-159.288888V93.866667c0-51.2-42.666667-93.866667-93.866666-93.866667H625.777778v418.133333l113.777778 19.911111z" fill="#E80035" p-id="7388"></path><path d="M830.577778 31.288889c-14.222222 0-22.755556 11.377778-22.755556 22.755555v8.533334c2.844444 5.688889 2.844444 11.377778 2.844445 17.066666v281.6c0 14.222222 11.377778 22.755556 22.755555 22.755556s22.755556-11.377778 22.755556-22.755556V93.866667c0-17.066667-2.844444-31.288889-8.533334-45.511111 0-11.377778-8.533333-17.066667-17.066666-17.066667z" fill="#CB0025" p-id="7389"></path><path d="M881.777778 256c-14.222222 0-22.755556 11.377778-22.755556 22.755556 0 25.6-11.377778 48.355556-31.288889 68.266666-8.533333 8.533333-11.377778 22.755556-2.844444 34.133334 8.533333 8.533333 22.755556 11.377778 34.133333 2.844444 14.222222-14.222222 25.6-28.444444 34.133334-45.511111 5.688889-17.066667 8.533333-31.288889 8.533333-48.355556 2.844444-25.6-5.688889-34.133333-19.911111-34.133333z" fill="#9B002F" p-id="7390"></path><path d="M813.511111 347.022222c0 42.666667-31.288889 82.488889-73.955555 91.022222-56.888889 11.377778-128 25.6-275.911112 25.6s-219.022222-11.377778-275.911111-25.6C145.066667 429.511111 113.777778 389.688889 113.777778 347.022222v-256C116.622222 42.666667 156.444444 0 207.644444 0h512c51.2 0 93.866667 42.666667 93.866667 93.866667v253.155555z" fill="#FA4659" p-id="7391"></path><path d="M790.755556 415.288889c-5.688889 0-11.377778 2.844444-14.222223 5.688889l-2.844444 2.844444c-8.533333 5.688889-19.911111 8.533333-28.444445 11.377778-56.888889 11.377778-128 25.6-275.911111 25.6s-219.022222-11.377778-275.911111-25.6c-5.688889-2.844444-11.377778-5.688889-19.911111-8.533333-11.377778-8.533333-25.6-5.688889-31.288889 5.688889s-22.755556 22.755556-11.377778 31.288888c14.222222 11.377778 31.288889 17.066667 48.355556 19.911112 59.733333 11.377778 133.688889 25.6 284.444444 25.6s224.711111-14.222222 284.444445-25.6c19.911111-5.688889 39.822222-14.222222 56.888889-25.6 11.377778-8.533333 11.377778-22.755556 2.844444-31.288889-2.844444-8.533333-8.533333-11.377778-17.066666-11.377778z" fill="#2C2F53" p-id="7392"></path><path d="M256 93.866667h418.133333c25.6 0 45.511111 19.911111 45.511111 45.511111v139.377778c0 25.6-19.911111 45.511111-45.511111 45.511111H256c-25.6 0-45.511111-19.911111-45.511111-45.511111V139.377778C207.644444 113.777778 230.4 93.866667 256 93.866667z" fill="#74D9D0" p-id="7393"></path><path d="M603.022222 278.755556c-14.222222 0-22.755556-11.377778-22.755555-22.755556 0-5.688889 2.844444-11.377778 5.688889-17.066667l45.511111-45.511111c8.533333-8.533333 22.755556-8.533333 34.133333 0 8.533333 8.533333 8.533333 22.755556 0 34.133334l-45.511111 45.511111c-5.688889 2.844444-11.377778 5.688889-17.066667 5.688889z" fill="#2C2F53" p-id="7394"></path><path d="M651.377778 278.755556c-5.688889 0-11.377778-2.844444-17.066667-5.688889L588.8 227.555556c-8.533333-8.533333-8.533333-22.755556 0-34.133334 8.533333-8.533333 22.755556-8.533333 34.133333 0l45.511111 45.511111c8.533333 8.533333 8.533333 22.755556 0 34.133334-5.688889 2.844444-11.377778 5.688889-17.066666 5.688889z" fill="#2C2F53" p-id="7395"></path><path d="M742.4 110.933333c-14.222222 0-22.755556 11.377778-22.755556 25.6V275.911111c0 2.844444 0 5.688889-2.844444 5.688889-5.688889 11.377778 0 25.6 11.377778 31.288889 11.377778 5.688889 25.6 0 31.288889-11.377778 5.688889-11.377778 8.533333-22.755556 8.533333-36.977778v5.688889-130.844444-5.688889c-2.844444-11.377778-11.377778-22.755556-25.6-22.755556z" fill="#FDB8BF" p-id="7396"></path><path d="M184.888889 110.933333c-11.377778 0-22.755556 8.533333-22.755556 22.755556v142.222222c0 11.377778 2.844444 25.6 8.533334 36.977778 5.688889 11.377778 19.911111 17.066667 31.288889 11.377778 11.377778-5.688889 17.066667-19.911111 11.377777-31.288889 0-2.844444-2.844444-5.688889-2.844444-5.688889V139.377778v-2.844445c0-11.377778-11.377778-22.755556-25.6-25.6 2.844444 0 0 0 0 0z" fill="#E80035" p-id="7397"></path><path d="M256 557.511111h45.511111c25.6 0 45.511111 19.911111 45.511111 45.511111 0 25.6-19.911111 45.511111-45.511111 45.511111H256c-25.6 0-45.511111-19.911111-45.511111-45.511111-2.844444-25.6 19.911111-45.511111 45.511111-45.511111zM440.888889 557.511111h45.511111c25.6 0 45.511111 19.911111 45.511111 45.511111 0 25.6-19.911111 45.511111-45.511111 45.511111h-45.511111c-25.6 0-45.511111-19.911111-45.511111-45.511111 0-25.6 19.911111-45.511111 45.511111-45.511111zM625.777778 557.511111h45.511111c25.6 0 45.511111 19.911111 45.511111 45.511111 0 25.6-19.911111 45.511111-45.511111 45.511111H625.777778c-25.6 0-45.511111-19.911111-45.511111-45.511111 0-25.6 19.911111-45.511111 45.511111-45.511111zM256 696.888889h45.511111c25.6 0 45.511111 19.911111 45.511111 45.511111 0 25.6-19.911111 45.511111-45.511111 45.511111H256c-25.6 0-45.511111-19.911111-45.511111-45.511111-2.844444-25.6 19.911111-45.511111 45.511111-45.511111zM440.888889 696.888889h45.511111c25.6 0 45.511111 19.911111 45.511111 45.511111 0 25.6-19.911111 45.511111-45.511111 45.511111h-45.511111c-25.6 0-45.511111-19.911111-45.511111-45.511111 0-25.6 19.911111-45.511111 45.511111-45.511111zM256 833.422222h45.511111c25.6 0 45.511111 19.911111 45.511111 45.511111 0 25.6-19.911111 45.511111-45.511111 45.511111H256c-25.6 0-45.511111-19.911111-45.511111-45.511111-2.844444-22.755556 19.911111-45.511111 45.511111-45.511111zM440.888889 833.422222h45.511111c25.6 0 45.511111 19.911111 45.511111 45.511111 0 25.6-19.911111 45.511111-45.511111 45.511111h-45.511111c-25.6 0-45.511111-19.911111-45.511111-45.511111 0-22.755556 19.911111-45.511111 45.511111-45.511111z" fill="#CACAD4" p-id="7398"></path><path d="M651.377778 696.888889c39.822222 0 71.111111 31.288889 71.111111 68.266667v93.866666c0 39.822222-31.288889 68.266667-71.111111 68.266667s-71.111111-31.288889-71.111111-68.266667v-93.866666c0-39.822222 31.288889-68.266667 71.111111-68.266667z" fill="#FA4659" p-id="7399"></path><path d="M256 139.377778c8.533333-8.533333 8.533333-22.755556 0-31.288889-8.533333-8.533333-22.755556-8.533333-31.288889 0-5.688889 0-5.688889 2.844444-8.533333 5.688889-5.688889 5.688889-8.533333 17.066667-8.533334 25.6v139.377778c0 14.222222 11.377778 22.755556 22.755556 22.755555 14.222222 0 22.755556-11.377778 22.755556-22.755555V233.244444L256 139.377778z" fill="#18AEAC" p-id="7400"></path><path d="M881.777778 366.933333c-5.688889 0-11.377778 2.844444-17.066667 5.688889-11.377778 11.377778-22.755556 19.911111-36.977778 25.6-11.377778 5.688889-14.222222 19.911111-8.533333 31.288889 5.688889 11.377778 19.911111 14.222222 31.288889 8.533333 17.066667-11.377778 34.133333-22.755556 48.355555-36.977777 8.533333-8.533333 8.533333-22.755556 0-34.133334-5.688889 2.844444-11.377778 0-17.066666 0z" fill="#1E2147" p-id="7401"></path><path d="M534.755556 256c0 14.222222-11.377778 22.755556-22.755556 22.755556-14.222222 0-22.755556-11.377778-22.755556-22.755556 0-14.222222 11.377778-22.755556 22.755556-22.755556s22.755556 8.533333 22.755556 22.755556zM440.888889 256c0 14.222222-11.377778 22.755556-22.755556 22.755556-14.222222 0-22.755556-11.377778-22.755555-22.755556 0-14.222222 11.377778-22.755556 22.755555-22.755556s22.755556 8.533333 22.755556 22.755556zM347.022222 256c0 14.222222-11.377778 22.755556-22.755555 22.755556s-22.755556-11.377778-22.755556-22.755556c0-14.222222 11.377778-22.755556 22.755556-22.755556s22.755556 8.533333 22.755555 22.755556z" fill="#2C2F53" p-id="7402"></path><path d="M486.4 765.155556c0 14.222222-11.377778 22.755556-22.755556 22.755555s-22.755556-11.377778-22.755555-22.755555c0-14.222222 11.377778-22.755556 22.755555-22.755556s22.755556 8.533333 22.755556 22.755556zM486.4 904.533333c0 14.222222-11.377778 22.755556-22.755556 22.755556s-22.755556-11.377778-22.755555-22.755556c0-14.222222 11.377778-22.755556 22.755555-22.755555s22.755556 8.533333 22.755556 22.755555zM301.511111 904.533333c0 14.222222-11.377778 22.755556-22.755555 22.755556s-22.755556-11.377778-22.755556-22.755556c0-14.222222 8.533333-22.755556 22.755556-22.755555s22.755556 8.533333 22.755555 22.755555zM301.511111 765.155556c0 14.222222-11.377778 22.755556-22.755555 22.755555s-22.755556-8.533333-22.755556-22.755555 11.377778-22.755556 22.755556-22.755556 22.755556 8.533333 22.755555 22.755556zM301.511111 625.777778c0 14.222222-11.377778 22.755556-22.755555 22.755555S256 640 256 625.777778s11.377778-22.755556 22.755556-22.755556 22.755556 11.377778 22.755555 22.755556zM486.4 625.777778c0 14.222222-11.377778 22.755556-22.755556 22.755555s-22.755556-11.377778-22.755555-22.755555 11.377778-22.755556 22.755555-22.755556 22.755556 11.377778 22.755556 22.755556zM674.133333 625.777778c0 14.222222-11.377778 22.755556-22.755555 22.755555-14.222222 0-22.755556-11.377778-22.755556-22.755555s11.377778-22.755556 22.755556-22.755556 22.755556 11.377778 22.755555 22.755556z" fill="#999AAC" p-id="7403"></path><path d="M696.888889 742.4c14.222222 0 22.755556 11.377778 22.755555 22.755556v93.866666c0 14.222222-11.377778 22.755556-22.755555 22.755556-14.222222 0-22.755556-11.377778-22.755556-22.755556v-93.866666c0-14.222222 8.533333-22.755556 22.755556-22.755556z" fill="#E80035" p-id="7404"></path><path d="M256 580.266667c0 14.222222-11.377778 22.755556-22.755556 22.755555-14.222222 0-22.755556-11.377778-22.755555-22.755555 0-14.222222 11.377778-22.755556 22.755555-22.755556s22.755556 8.533333 22.755556 22.755556zM256 719.644444c0 14.222222-11.377778 22.755556-22.755556 22.755556-14.222222 0-22.755556-11.377778-22.755555-22.755556s11.377778-22.755556 22.755555-22.755555 22.755556 8.533333 22.755556 22.755555zM256 859.022222c0 11.377778-11.377778 22.755556-22.755556 22.755556-14.222222 0-22.755556-11.377778-22.755555-22.755556 0-14.222222 11.377778-22.755556 22.755555-22.755555 11.377778-2.844444 22.755556 8.533333 22.755556 22.755555zM440.888889 580.266667c0 14.222222-11.377778 22.755556-22.755556 22.755555-14.222222 0-22.755556-11.377778-22.755555-22.755555 0-14.222222 11.377778-22.755556 22.755555-22.755556s22.755556 8.533333 22.755556 22.755556zM625.777778 580.266667c0 14.222222-11.377778 22.755556-22.755556 22.755555s-22.755556-11.377778-22.755555-22.755555c0-14.222222 11.377778-22.755556 22.755555-22.755556s22.755556 8.533333 22.755556 22.755556zM440.888889 719.644444c0 14.222222-11.377778 22.755556-22.755556 22.755556-14.222222 0-22.755556-11.377778-22.755555-22.755556s11.377778-22.755556 22.755555-22.755555 22.755556 8.533333 22.755556 22.755555zM440.888889 859.022222c0 14.222222-11.377778 22.755556-22.755556 22.755556-14.222222 0-22.755556-11.377778-22.755555-22.755556 0-14.222222 11.377778-22.755556 22.755555-22.755555 11.377778-2.844444 22.755556 8.533333 22.755556 22.755555z" fill="#EAEAEE" p-id="7405"></path><path d="M674.133333 742.4c0 25.6-19.911111 45.511111-45.511111 45.511111-25.6 0-45.511111-19.911111-45.511111-45.511111 0-25.6 19.911111-45.511111 45.511111-45.511111 22.755556 0 45.511111 19.911111 45.511111 45.511111z" fill="#FEDEE1" p-id="7406"></path></svg>