<?xml version="1.0" standalone="no"?><!DOCTYPE svg PUBLIC "-//W3C//DTD SVG 1.1//EN" "http://www.w3.org/Graphics/SVG/1.1/DTD/svg11.dtd"><svg class="icon" width="200px" height="200.00px" viewBox="0 0 1024 1024" version="1.1" xmlns="http://www.w3.org/2000/svg"><path fill="#9CA6C7" d="M453.688889 0C704.113778 0 907.377778 203.235556 907.377778 453.688889c0 250.424889-203.264 453.688889-453.688889 453.688889C203.235556 907.377778 0 704.085333 0 453.688889 0 203.235556 203.235556 0 453.688889 0z m0 806.542222c194.929778 0 352.853333-157.923556 352.853333-352.853333 0-194.986667-157.923556-352.881778-352.853333-352.881778-194.986667 0-352.881778 157.866667-352.881778 352.881778 0 194.929778 157.866667 352.853333 352.881778 352.853333z m427.719111 3.584L1024 952.661333 952.661333 1024l-142.535111-142.592 71.281778-71.281778z"  /></svg>