<?xml version="1.0" standalone="no"?><!DOCTYPE svg PUBLIC "-//W3C//DTD SVG 1.1//EN" "http://www.w3.org/Graphics/SVG/1.1/DTD/svg11.dtd"><svg class="icon" width="200px" height="200.00px" viewBox="0 0 1024 1024" version="1.1" xmlns="http://www.w3.org/2000/svg"><path d="M0 0m358.4 0l307.2 0q358.4 0 358.4 358.4l0 307.2q0 358.4-358.4 358.4l-307.2 0q-358.4 0-358.4-358.4l0-307.2q0-358.4 358.4-358.4Z" fill="#E9F1FF" /><path d="M655.36 716.8H368.64a61.44 61.44 0 0 1-61.44-61.44V327.68a20.48 20.48 0 0 1 20.48-20.48H614.4a20.48 20.48 0 0 1 20.48 20.48v245.76H716.8v81.92a61.44 61.44 0 0 1-61.44 61.44z m-20.48-102.4v40.96a20.48 20.48 0 1 0 40.96 0V614.4h-40.96z m-245.76-204.8v40.96h163.84V409.6h-163.84z m0 81.92v40.96h163.84v-40.96h-163.84z m0 81.92V614.4h102.4v-40.96h-102.4z" fill="#2878FF" /></svg>