<?xml version="1.0" standalone="no"?><!DOCTYPE svg PUBLIC "-//W3C//DTD SVG 1.1//EN" "http://www.w3.org/Graphics/SVG/1.1/DTD/svg11.dtd"><svg class="icon" width="200px" height="200.00px" viewBox="0 0 1024 1024" version="1.1" xmlns="http://www.w3.org/2000/svg"><path d="M0 0m358.4 0l307.2 0q358.4 0 358.4 358.4l0 307.2q0 358.4-358.4 358.4l-307.2 0q-358.4 0-358.4-358.4l0-307.2q0-358.4 358.4-358.4Z" fill="#E9F1FF" /><path d="M558.7712 488.96H742.4c-11.5456-116.4288-110.0288-207.36-229.8112-207.36C384.9984 281.6 281.6 384.768 281.6 512s103.424 230.4 230.9888 230.4c119.7568 0 218.24-90.9312 229.8112-207.36h-183.6288v69.12L443.2896 512l115.4816-92.16v69.12z" fill="#2878FF" /></svg>