<?xml version="1.0" standalone="no"?><!DOCTYPE svg PUBLIC "-//W3C//DTD SVG 1.1//EN" "http://www.w3.org/Graphics/SVG/1.1/DTD/svg11.dtd"><svg class="icon" width="200px" height="200.00px" viewBox="0 0 1024 1024" version="1.1" xmlns="http://www.w3.org/2000/svg"><path d="M0 0m358.4 0l307.2 0q358.4 0 358.4 358.4l0 307.2q0 358.4-358.4 358.4l-307.2 0q-358.4 0-358.4-358.4l0-307.2q0-358.4 358.4-358.4Z" fill="#F0F2F5" /><path d="M742.4 398.2336H281.6v-68.2752c0-12.5696 10.3168-22.7584 23.04-22.7584h414.72c12.7232 0 23.04 10.1888 23.04 22.7584v68.2752z m0 45.4912v250.3168c0 12.5696-10.3168 22.7584-23.04 22.7584H304.64a22.8864 22.8864 0 0 1-23.04-22.7584v-250.3168h460.8z m-253.44 113.792v-56.8832l-103.68 102.4h241.92v-45.5168h-138.24z" fill="#D2D3D6" /></svg>