<?xml version="1.0" standalone="no"?><!DOCTYPE svg PUBLIC "-//W3C//DTD SVG 1.1//EN" "http://www.w3.org/Graphics/SVG/1.1/DTD/svg11.dtd"><svg class="icon" width="200px" height="200.00px" viewBox="0 0 1024 1024" version="1.1" xmlns="http://www.w3.org/2000/svg"><path fill="#2878FF" d="M512 1024C229.239467 1024 0 794.760533 0 512 0 229.239467 229.239467 0 512 0c282.760533 0 512 229.239467 512 512 0 282.760533-229.239467 512-512 512z m0-102.4c226.2016 0 409.6-183.3984 409.6-409.6S738.2016 102.4 512 102.4 102.4 285.7984 102.4 512s183.3984 409.6 409.6 409.6z"  /><path fill="#2878FF" d="M440.4224 513.365333l-102.6048-102.570666a25.6 25.6 0 0 1 0-36.181334l36.215467-36.215466a25.6 25.6 0 0 1 36.181333 0l102.6048 102.570666 102.570667-102.570666a25.6 25.6 0 0 1 36.181333 0l36.215467 36.181333a25.6 25.6 0 0 1 0 36.215467l-102.570667 102.6048 102.570667 102.570666a25.6 25.6 0 0 1 0 36.181334l-36.181334 36.215466a25.6 25.6 0 0 1-36.181333 0l-102.6048-102.570666-102.570667 102.570666a25.6 25.6 0 0 1-36.181333 0l-36.2496-36.181333a25.6 25.6 0 0 1 0-36.215467l102.6048-102.570666z"  /></svg>