<?xml version="1.0" standalone="no"?><!DOCTYPE svg PUBLIC "-//W3C//DTD SVG 1.1//EN" "http://www.w3.org/Graphics/SVG/1.1/DTD/svg11.dtd"><svg class="icon" width="200px" height="200.00px" viewBox="0 0 1024 1024" version="1.1" xmlns="http://www.w3.org/2000/svg"><path fill="#2878FF" d="M512 1024c282.760533 0 512-229.239467 512-512 0-282.760533-229.239467-512-512-512C229.239467 0 0 229.239467 0 512c0 282.760533 229.239467 512 512 512z m0-102.4C285.7984 921.6 102.4 738.2016 102.4 512S285.7984 102.4 512 102.4s409.6 183.3984 409.6 409.6-183.3984 409.6-409.6 409.6z"  /><path fill="#2878FF" d="M454.656 563.370667l223.197867-223.163734a25.6 25.6 0 0 1 36.181333 0l36.215467 36.181334a25.6 25.6 0 0 1 0 36.215466l-239.172267 239.172267a25.873067 25.873067 0 0 1-1.979733 2.218667l-36.181334 36.215466a25.6 25.6 0 0 1-24.132266 6.826667 25.463467 25.463467 0 0 1-12.288-6.8608l-36.181334-36.181333a25.941333 25.941333 0 0 1-1.604266-1.7408l-118.920534-118.920534a25.6 25.6 0 0 1 0-36.181333l36.181334-36.215467a25.6 25.6 0 0 1 36.2496 0l102.434133 102.434134z"  /></svg>