<?xml version="1.0" standalone="no"?><!DOCTYPE svg PUBLIC "-//W3C//DTD SVG 1.1//EN" "http://www.w3.org/Graphics/SVG/1.1/DTD/svg11.dtd"><svg class="icon" width="200px" height="200.00px" viewBox="0 0 1024 1024" version="1.1" xmlns="http://www.w3.org/2000/svg"><path fill="#ffffff" d="M512 896c212.0704 0 384-171.9296 384-384 0-212.0704-171.9296-384-384-384-212.0704 0-384 171.9296-384 384 0 212.0704 171.9296 384 384 384z m0 128C229.2224 1024 0 794.7776 0 512S229.2224 0 512 0s512 229.2224 512 512-229.2224 512-512 512z"  /><path fill="#ffffff" d="M470.1952 539.3408l199.04-199.04a25.6 25.6 0 0 1 36.224 0l54.272 54.2976a25.6 25.6 0 0 1 0 36.1984L488.2432 702.336a25.6 25.6 0 0 1-36.1984 0l-54.2976-54.2976c-0.512-0.512-1.024-1.0752-1.5104-1.6384l-107.1104-107.1104a25.6 25.6 0 0 1 0-36.224l54.2976-54.2976a25.6 25.6 0 0 1 36.1984 0l90.5984 90.5728z"  /></svg>