<?xml version="1.0" standalone="no"?><!DOCTYPE svg PUBLIC "-//W3C//DTD SVG 1.1//EN" "http://www.w3.org/Graphics/SVG/1.1/DTD/svg11.dtd"><svg class="icon" width="200px" height="200.00px" viewBox="0 0 1024 1024" version="1.1" xmlns="http://www.w3.org/2000/svg"><path d="M0 0m358.4 0l307.2 0q358.4 0 358.4 358.4l0 307.2q0 358.4-358.4 358.4l-307.2 0q-358.4 0-358.4-358.4l0-307.2q0-358.4 358.4-358.4Z" fill="#E9F1FF" /><path d="M716.8 472.1664v199.1168a20.224 20.224 0 0 1-20.48 19.9168H327.68a20.224 20.224 0 0 1-20.48-19.9168v-199.1168h409.6z m0-39.808H307.2v-79.6416a20.224 20.224 0 0 1 20.48-19.9168h368.64c11.3152 0 20.48 8.9088 20.48 19.9168v79.616z m-143.36 159.2832v39.8336h81.92V591.616h-81.92z" fill="#2878FF" /></svg>