<?xml version="1.0" standalone="no"?><!DOCTYPE svg PUBLIC "-//W3C//DTD SVG 1.1//EN" "http://www.w3.org/Graphics/SVG/1.1/DTD/svg11.dtd"><svg class="icon" width="48px" height="48.00px" viewBox="0 0 1024 1024" version="1.1" xmlns="http://www.w3.org/2000/svg"><path d="M0 0m358.4 0l307.2 0q358.4 0 358.4 358.4l0 307.2q0 358.4-358.4 358.4l-307.2 0q-358.4 0-358.4-358.4l0-307.2q0-358.4 358.4-358.4Z" fill="#E9F1FF" /><path d="M398.4384 643.2768L307.2 716.8V328.192a20.736 20.736 0 0 1 20.48-20.992h368.64c11.3152 0 20.48 9.3952 20.48 20.992v294.0928a20.736 20.736 0 0 1-20.48 20.992H398.4384z m99.072-144.4864l-50.688-51.968-28.928 29.696 79.616 81.6896 115.8656-118.8352-28.9536-29.696-86.912 89.088z" fill="#2878FF" /></svg>