<?xml version="1.0" standalone="no"?><!DOCTYPE svg PUBLIC "-//W3C//DTD SVG 1.1//EN" "http://www.w3.org/Graphics/SVG/1.1/DTD/svg11.dtd"><svg class="icon" width="48px" height="48.00px" viewBox="0 0 1024 1024" version="1.1" xmlns="http://www.w3.org/2000/svg"><path d="M0 0m358.4 0l307.2 0q358.4 0 358.4 358.4l0 307.2q0 358.4-358.4 358.4l-307.2 0q-358.4 0-358.4-358.4l0-307.2q0-358.4 358.4-358.4Z" fill="#E9F1FF" /><path d="M327.68 332.8h368.64c11.3152 0 20.48 8.9088 20.48 19.9168v318.5664a20.224 20.224 0 0 1-20.48 19.9168H327.68a20.224 20.224 0 0 1-20.48-19.9168V352.7168a20.224 20.224 0 0 1 20.48-19.9168z m122.88 156.8c0 32.9984 27.52 59.7248 61.44 59.7248s61.44-26.7264 61.44-59.7248h102.4v-116.992H348.16v116.992h102.4z" fill="#2878FF" /></svg>