<?xml version="1.0" standalone="no"?><!DOCTYPE svg PUBLIC "-//W3C//DTD SVG 1.1//EN" "http://www.w3.org/Graphics/SVG/1.1/DTD/svg11.dtd"><svg class="icon" width="48px" height="48.00px" viewBox="0 0 1024 1024" version="1.1" xmlns="http://www.w3.org/2000/svg"><path d="M512 512m-512 0a512 512 0 1 0 1024 0 512 512 0 1 0-1024 0Z" fill="#E9F1FF" /><path d="M305.708522 349.495652h166.867478V311.652174h78.959304c0.400696 20.813913 0.400696 33.369043 0 37.665391l166.733913 0.133565c9.015652 0.022261 16.317217 7.346087 16.339479 16.339479v307.97913a16.317217 16.317217 0 0 1-16.317218 16.317218H305.708522a16.317217 16.317217 0 0 1-16.317218-16.317218V365.790609c0-9.015652 7.301565-16.317217 16.317218-16.317218z" fill="#D0E2FF" /><path d="M451.33913 377.09913l53.092174 37.888a13.200696 13.200696 0 0 0 14.914783 0l53.114435-37.888a12.02087 12.02087 0 0 0 5.142261-9.861565v-65.669565A12.466087 12.466087 0 0 0 564.98087 289.391304h-106.073044a12.466087 12.466087 0 0 0-12.621913 12.198957v65.647304c0 3.85113 1.892174 7.524174 5.053217 9.861565z m-37.442782-35.884521a12.466087 12.466087 0 0 1 12.621913 12.198956 12.466087 12.466087 0 0 1-12.621913 12.198957h-93.985391c-15.137391 0-27.536696 11.887304-27.536696 26.624v269.089391c0 14.647652 12.288 26.624 27.536696 26.624h384.178086c15.137391 0 27.536696-11.887304 27.536696-26.624V392.236522c0-14.625391-12.288-26.624-27.536696-26.624h-94.096695a12.466087 12.466087 0 0 1-12.621913-12.198957 12.466087 12.466087 0 0 1 12.621913-12.198956h94.096695c29.117217 0 52.780522 22.861913 52.780522 51.021913v269.089391C756.869565 689.485913 733.206261 712.347826 704.089043 712.347826H319.910957C290.793739 712.347826 267.130435 689.485913 267.130435 661.325913V392.236522c0-28.16 23.663304-51.021913 52.780522-51.021913z m-11.353044 179.066434c24.932174 0 45.100522 11.174957 58.368 32.211479 9.46087 15.36 15.560348 35.884522 17.964522 61.284174a12.310261 12.310261 0 0 1-11.464348 13.200695c-0.400696 0.111304-0.734609 0.111304-1.157565 0.111305a12.488348 12.488348 0 0 1-12.510609-11.085913c-4.518957-47.34887-21.74887-71.323826-51.2-71.323826-29.42887 0-46.681043 23.974957-51.2 71.323826a12.488348 12.488348 0 0 1-13.668174 11.085913 12.310261 12.310261 0 0 1-11.464347-13.222957c2.426435-25.377391 8.414609-46.035478 17.986782-61.261913 13.245217-21.147826 33.435826-32.322783 58.345739-32.322783z m195.049739 59.659131a12.466087 12.466087 0 0 1 12.599653 12.176696 12.466087 12.466087 0 0 1-12.599653 12.198956H527.137391a12.466087 12.466087 0 0 1-12.621913-12.198956 12.466087 12.466087 0 0 1 12.621913-12.176696z m70.433392-43.497739a12.466087 12.466087 0 0 1 12.621913 12.198956 12.377043 12.377043 0 0 1-12.621913 12.176696H527.137391a12.466087 12.466087 0 0 1-12.621913-12.176696 12.466087 12.466087 0 0 1 12.621913-12.198956z m0-43.809392a12.466087 12.466087 0 0 1 12.621913 12.198957 12.466087 12.466087 0 0 1-12.621913 12.198957H527.137391a12.466087 12.466087 0 0 1-12.621913-12.198957 12.466087 12.466087 0 0 1 12.621913-12.198957z m-265.483131-66.248347c24.286609 0 44.076522 19.099826 44.076522 42.585043 0 23.462957-19.789913 42.562783-44.076522 42.562783-24.264348 0-44.054261-19.099826-44.054261-42.562783 0-23.485217 19.767652-42.585043 44.076522-42.585043z m0 24.375652a18.476522 18.476522 0 0 0-18.810434 18.209391 18.476522 18.476522 0 0 0 18.810434 18.187131 18.476522 18.476522 0 0 0 18.832696-18.187131 18.476522 18.476522 0 0 0-18.832696-18.209391z m265.483131-1.625044a12.466087 12.466087 0 0 1 12.621913 12.198957 12.466087 12.466087 0 0 1-12.621913 12.198956H527.137391a12.466087 12.466087 0 0 1-12.621913-12.198956 12.466087 12.466087 0 0 1 12.621913-12.198957z m-115.44487-135.346087v47.237566L512 390.010435l-40.470261-28.850087v-47.34887h81.051826z" fill="#2878FF" /></svg>