<?xml version="1.0" standalone="no"?><!DOCTYPE svg PUBLIC "-//W3C//DTD SVG 1.1//EN" "http://www.w3.org/Graphics/SVG/1.1/DTD/svg11.dtd"><svg class="icon" width="48px" height="48.00px" viewBox="0 0 1024 1024" version="1.1" xmlns="http://www.w3.org/2000/svg"><path d="M512 512m-512 0a512 512 0 1 0 1024 0 512 512 0 1 0-1024 0Z" fill="#E9F1FF" /><path d="M626.93287 673.435826a11.174957 11.174957 0 0 0-13.490087 0L560.573217 712.347826 507.547826 673.435826a11.174957 11.174957 0 0 0-13.512348 0l-52.847304 38.800696-53.069913-38.800696a11.174957 11.174957 0 0 0-13.490087 0l-43.742609 29.851826V244.869565h338.877218l0.089043 458.529392-42.896696-29.963131z" fill="#D0E2FF" /><path d="M722.253913 244.869565h-442.768696a12.466087 12.466087 0 0 0-12.354782 12.53287c0 6.90087 5.565217 12.55513 12.354782 12.55513h26.668522v451.806609c0 4.585739 2.470957 8.882087 6.477913 11.063652 4.006957 2.203826 8.859826 2.003478 12.688696-0.623304l53.648695-36.262957 53.849044 36.374261c4.118261 2.80487 9.572174 2.80487 13.690435 0l53.648695-36.262956 53.849044 36.352c4.118261 2.82713 9.572174 2.82713 13.690435 0l53.648695-36.240696 53.871305 36.352a12.399304 12.399304 0 0 0 12.644174 0.623304 12.621913 12.621913 0 0 0 6.477913-11.063652l-0.200348-451.806609h28.115478a12.466087 12.466087 0 0 0 12.354783-12.55513c0-6.90087-5.565217-12.844522-12.354783-12.844522z m-52.624696 24.976696l0.111305 428.521739-41.494261-28.026435a12.132174 12.132174 0 0 0-13.690435 0l-53.648696 36.374261-53.871304-36.374261a12.132174 12.132174 0 0 0-13.690435 0l-53.648695 36.285218-53.849044-36.285218a12.132174 12.132174 0 0 0-13.690435 0l-41.293913 27.915131V269.846261h338.765913z m-184.921043 295.490782h-96.990609a12.466087 12.466087 0 0 0-12.377043 12.53287c0 6.90087 5.476174 12.55513 12.377043 12.55513h96.990609a12.466087 12.466087 0 0 0 12.354783-12.55513 12.466087 12.466087 0 0 0-12.354783-12.53287z m129.424696 0h-32.322783a12.466087 12.466087 0 0 0-12.354783 12.53287c0 6.90087 5.453913 12.55513 12.354783 12.55513h32.322783a12.466087 12.466087 0 0 0 12.354782-12.55513 12.466087 12.466087 0 0 0-12.354782-12.53287z m-96.990609-43.475478h-129.424696a12.466087 12.466087 0 0 0-12.377043 12.555131c0 6.90087 5.476174 12.53287 12.377043 12.532869h129.424696a12.466087 12.466087 0 0 0 12.354782-12.532869 12.466087 12.466087 0 0 0-12.354782-12.555131z m96.990609 0h-32.322783a12.466087 12.466087 0 0 0-12.354783 12.555131c0 6.90087 5.453913 12.53287 12.354783 12.532869h32.322783a12.466087 12.466087 0 0 0 12.354782-12.532869 12.466087 12.466087 0 0 0-12.354782-12.555131z m-129.424696-58.301217h-96.990609a12.466087 12.466087 0 0 0-12.377043 12.532869c0 6.90087 5.476174 12.55513 12.377043 12.555131h96.990609a12.466087 12.466087 0 0 0 12.354783-12.555131 12.466087 12.466087 0 0 0-12.354783-12.532869z m129.424696 0h-32.322783a12.466087 12.466087 0 0 0-12.354783 12.532869c0 6.90087 5.453913 12.55513 12.354783 12.555131h32.322783a12.466087 12.466087 0 0 0 12.354782-12.555131 12.466087 12.466087 0 0 0-12.354782-12.532869z m-96.990609-43.564522h-129.424696a12.466087 12.466087 0 0 0-12.377043 12.53287c0 6.90087 5.476174 12.53287 12.377043 12.532869h129.424696a12.466087 12.466087 0 0 0 12.354782-12.532869 12.466087 12.466087 0 0 0-12.354782-12.53287z m96.990609 0h-32.322783a12.466087 12.466087 0 0 0-12.354783 12.53287c0 6.90087 5.453913 12.53287 12.354783 12.532869h32.322783a12.466087 12.466087 0 0 0 12.354782-12.532869 12.466087 12.466087 0 0 0-12.354782-12.53287z m-129.424696-57.165913h-96.990609a12.466087 12.466087 0 0 0-12.377043 12.55513c0 6.90087 5.476174 12.53287 12.377043 12.53287h96.990609a12.466087 12.466087 0 0 0 12.354783-12.53287 12.466087 12.466087 0 0 0-12.354783-12.55513z m129.424696 0h-32.322783a12.466087 12.466087 0 0 0-12.354783 12.55513c0 6.90087 5.453913 12.53287 12.354783 12.53287h32.322783a12.466087 12.466087 0 0 0 12.354782-12.53287 12.466087 12.466087 0 0 0-12.354782-12.55513z m-96.990609-43.453217h-129.424696a12.466087 12.466087 0 0 0-12.377043 12.532869c0 6.90087 5.476174 12.53287 12.377043 12.53287h129.424696a12.466087 12.466087 0 0 0 12.354782-12.53287 12.466087 12.466087 0 0 0-12.354782-12.532869z m96.990609 0h-32.322783a12.466087 12.466087 0 0 0-12.354783 12.532869c0 6.90087 5.453913 12.53287 12.354783 12.53287h32.322783a12.466087 12.466087 0 0 0 12.354782-12.53287 12.466087 12.466087 0 0 0-12.354782-12.532869z" fill="#2878FF" /></svg>