<?xml version="1.0" standalone="no"?><!DOCTYPE svg PUBLIC "-//W3C//DTD SVG 1.1//EN" "http://www.w3.org/Graphics/SVG/1.1/DTD/svg11.dtd"><svg class="icon" width="48px" height="48.00px" viewBox="0 0 1024 1024" version="1.1" xmlns="http://www.w3.org/2000/svg"><path d="M512 512m-512 0a512 512 0 1 0 1024 0 512 512 0 1 0-1024 0Z" fill="#E9F1FF" /><path d="M267.130435 289.391304h449.981217c9.661217 0 17.497043 7.835826 17.497044 17.497044v387.962435a17.497043 17.497043 0 0 1-17.497044 17.497043H365.078261a97.947826 97.947826 0 0 1-97.947826-97.947826V289.391304z" fill="#D0E2FF" /><path d="M676.708174 267.130435c6.989913 0 12.688696 5.565217 12.688696 12.399304v331.620174a12.577391 12.577391 0 0 1-12.688696 12.399304 12.577391 12.577391 0 0 1-12.688696-12.399304v-319.22087H292.507826V646.90087c0 34.726957 28.872348 62.998261 64.512 62.99826h310.071652c35.528348 0 64.512-28.182261 64.512-62.99826V317.862957c0-6.834087 5.698783-12.399304 12.688696-12.399305 6.967652 0 12.688696 5.565217 12.577391 12.399305v328.926608C756.869565 695.251478 716.577391 734.608696 666.980174 734.608696H357.019826C307.422609 734.608696 267.130435 695.251478 267.130435 646.789565V279.529739c0-6.811826 5.721043-12.399304 12.688695-12.399304z m-61.328696 387.717565c6.967652 0 12.688696 5.565217 12.688696 12.399304a12.577391 12.577391 0 0 1-12.688696 12.399305H382.619826a12.577391 12.577391 0 0 1-12.688696-12.399305c0-6.811826 5.698783-12.399304 12.688696-12.399304z m0-63.532522c6.967652 0 12.577391 5.565217 12.577392 12.399305a12.577391 12.577391 0 0 1-12.688696 12.399304H338.721391a12.577391 12.577391 0 0 1-12.688695-12.399304c0-6.811826 5.721043-12.399304 12.688695-12.399305z m-143.092869-197.008695c6.989913 0 12.688696 5.565217 12.688695 12.399304v134.099478a12.577391 12.577391 0 0 1-12.688695 12.399305h-137.794783a12.577391 12.577391 0 0 1-12.688696-12.399305V406.706087c0-6.811826 5.721043-12.399304 12.688696-12.399304z m149.860174 127.888695c6.967652 0 12.688696 5.587478 12.688695 12.399305a12.510609 12.510609 0 0 1-12.688695 12.399304h-91.269566a12.577391 12.577391 0 0 1-12.688695-12.399304c0-6.811826 5.698783-12.399304 12.688695-12.399305z m-162.54887-103.090087h-112.417391v109.30087h112.417391v-109.30087z m162.54887 43.586783c7.078957 0 12.688696 5.565217 12.688695 12.399304a12.577391 12.577391 0 0 1-12.688695 12.399305h-91.269566a12.577391 12.577391 0 0 1-12.688695-12.399305c0-6.811826 5.698783-12.399304 12.688695-12.399304z m0-55.986087c7.078957 0 12.688696 5.565217 12.688695 12.399304a12.577391 12.577391 0 0 1-12.688695 12.399305h-91.269566a12.577391 12.577391 0 0 1-12.688695-12.399305c0-6.834087 5.698783-12.399304 12.688695-12.399304z m-6.767305-68.096c6.967652 0 12.688696 5.587478 12.688696 12.399304a12.577391 12.577391 0 0 1-12.688696 12.399305H338.721391a12.577391 12.577391 0 0 1-12.688695-12.399305c0-6.811826 5.721043-12.399304 12.688695-12.399304z" fill="#2878FF" /></svg>