<?xml version="1.0" standalone="no"?><!DOCTYPE svg PUBLIC "-//W3C//DTD SVG 1.1//EN" "http://www.w3.org/Graphics/SVG/1.1/DTD/svg11.dtd"><svg class="icon" width="48px" height="48.00px" viewBox="0 0 1024 1024" version="1.1" xmlns="http://www.w3.org/2000/svg"><path d="M512 512m-512 0a512 512 0 1 0 1024 0 512 512 0 1 0-1024 0Z" fill="#E9F1FF" /><path d="M754.242783 393.861565l-95.654957-121.900522a12.443826 12.443826 0 0 0-9.794783-4.830608H397.57913a12.443826 12.443826 0 0 0-9.794782 4.830608l-95.677218 121.900522a12.310261 12.310261 0 0 0-2.715826 7.769044v342.661565c0 6.90087 5.632 12.577391 12.510609 12.577391h442.434783c6.90087 0 12.53287-5.654261 12.532869-12.577391V401.630609a11.642435 11.642435 0 0 0-2.626782-7.769044z" fill="#D4E4FF" /><path d="M754.265043 393.861565l-95.677217-121.900522a12.443826 12.443826 0 0 0-9.794783-4.830608H397.57913a12.443826 12.443826 0 0 0-9.794782 4.830608l-95.677218 121.900522a12.310261 12.310261 0 0 0-2.715826 7.769044v342.661565c0 6.90087 5.632 12.577391 12.510609 12.577391h442.457044c6.878609 0 12.510609-5.654261 12.510608-12.577391V401.630609a12.866783 12.866783 0 0 0-2.604522-7.769044z m-34.014608-2.715826h-184.542609v-98.838261h107.030261l77.512348 98.838261z m-316.616348-98.838261h107.030261v98.838261h-184.542609l77.512348-98.838261z m328.192 123.993044V731.714783h-417.391304V416.278261h417.391304z m-123.102609 206.914782h-158.786782a12.577391 12.577391 0 0 0 0 25.154783h158.697739a12.577391 12.577391 0 0 0 0.089043-25.154783z m0-58.902261h-158.786782a12.577391 12.577391 0 0 0 0 25.154783h158.697739a12.577391 12.577391 0 0 0 0.089043-25.154783z m48.617739-59.013565h-256a12.577391 12.577391 0 0 0 0 25.154783h256a12.577391 12.577391 0 0 0 0-25.154783z" fill="#2878FF" /></svg>