<?xml version="1.0" standalone="no"?><!DOCTYPE svg PUBLIC "-//W3C//DTD SVG 1.1//EN" "http://www.w3.org/Graphics/SVG/1.1/DTD/svg11.dtd"><svg class="icon" width="48px" height="48.00px" viewBox="0 0 1024 1024" version="1.1" xmlns="http://www.w3.org/2000/svg"><path d="M512 512m-512 0a512 512 0 1 0 1024 0 512 512 0 1 0-1024 0Z" fill="#E9F1FF" /><path d="M754.242783 393.861565l-95.654957-121.900522a12.443826 12.443826 0 0 0-9.794783-4.830608H397.57913a12.443826 12.443826 0 0 0-9.794782 4.830608l-95.677218 121.900522a12.310261 12.310261 0 0 0-2.715826 7.769044v342.661565c0 6.90087 5.632 12.577391 12.510609 12.577391h442.434783c6.90087 0 12.53287-5.654261 12.532869-12.577391V401.630609a11.642435 11.642435 0 0 0-2.626782-7.769044z" fill="#D4E4FF" /><path d="M754.242783 393.861565l-95.654957-121.900522a12.443826 12.443826 0 0 0-9.794783-4.830608H397.57913a12.443826 12.443826 0 0 0-9.794782 4.830608l-95.677218 121.900522a12.310261 12.310261 0 0 0-2.715826 7.769044v342.661565c0 6.90087 5.632 12.577391 12.510609 12.577391h442.434783c6.90087 0 12.53287-5.654261 12.532869-12.577391V401.630609a11.642435 11.642435 0 0 0-2.626782-7.769044z m-33.992348-2.715826h-184.542609v-98.838261h107.030261l77.512348 98.838261z m-316.616348-98.838261h107.030261v98.838261h-184.542609l77.512348-98.838261z m328.192 123.993044V731.714783h-417.391304V416.278261h417.391304z m-152.932174 164.062608a43.186087 43.186087 0 0 0-30.875826 12.77774 43.987478 43.987478 0 0 0 0 61.952c8.236522 8.281043 19.18887 12.777739 30.875826 12.777739a43.631304 43.631304 0 0 0 43.609044-43.809392 43.631304 43.631304 0 0 0-12.733218-31.031652 43.27513 43.27513 0 0 0-30.875826-12.688695z m9.48313-88.820869l-148.034782 148.769391a12.621913 12.621913 0 0 0 8.882087 21.481739 12.710957 12.710957 0 0 0 8.859826-3.673043l148.034783-148.747131a12.621913 12.621913 0 0 0 0-17.808695 12.488348 12.488348 0 0 0-17.741914 0z m-9.48313 113.975652a18.69913 18.69913 0 0 1 13.133913 5.431652 18.854957 18.854957 0 0 1 0 26.423652 18.253913 18.253913 0 0 1-13.133913 5.453913 18.69913 18.69913 0 0 1-13.133913-5.453913 18.854957 18.854957 0 0 1 0-26.423652 18.253913 18.253913 0 0 1 13.133913-5.453913zM467.478261 482.214957a43.186087 43.186087 0 0 0-30.898087 12.777739 43.987478 43.987478 0 0 0 0 61.952c8.236522 8.281043 19.21113 12.8 30.898087 12.8a43.186087 43.186087 0 0 0 30.875826-12.8 43.987478 43.987478 0 0 0 0-61.952A43.186087 43.186087 0 0 0 467.478261 482.237217z m0 25.043478a18.69913 18.69913 0 0 1 13.133913 5.453913 18.854957 18.854957 0 0 1 0 26.423652 18.253913 18.253913 0 0 1-13.133913 5.431652 18.69913 18.69913 0 0 1-13.133913-5.431652 18.854957 18.854957 0 0 1 0-26.423652 18.253913 18.253913 0 0 1 13.133913-5.453913z" fill="#2878FF" /></svg>