<?xml version="1.0" standalone="no"?><!DOCTYPE svg PUBLIC "-//W3C//DTD SVG 1.1//EN" "http://www.w3.org/Graphics/SVG/1.1/DTD/svg11.dtd"><svg class="icon" width="48px" height="48.00px" viewBox="0 0 1024 1024" version="1.1" xmlns="http://www.w3.org/2000/svg"><path d="M512 512m-512 0a512 512 0 1 0 1024 0 512 512 0 1 0-1024 0Z" fill="#E9F1FF" /><path d="M779.130435 435.266783a11.575652 11.575652 0 0 0-1.669565-6.144l-76.176696-133.36487a12.621913 12.621913 0 0 0-10.863304-6.366609H355.728696a12.421565 12.421565 0 0 0-10.907826 6.366609l-76.043131 133.342609a12.599652 12.599652 0 0 0-1.669565 6.166261c0 29.896348 18.098087 55.54087 43.942956 66.893913v219.937391c0 6.90087 5.654261 12.510609 12.555131 12.510609h398.892522c6.90087 0 12.55513-5.632 12.55513-12.510609v-218.37913c0-0.534261 0-0.934957-0.089043-1.357914A73.327304 73.327304 0 0 0 779.130435 435.266783z" fill="#D4E4FF" /><path d="M630.873043 531.856696h-69.565217a34.504348 34.504348 0 0 0-34.504348 34.370782v53.136696a34.504348 34.504348 0 0 0 34.504348 34.393043h69.587478a34.504348 34.504348 0 0 0 34.504348-34.393043v-53.136696a34.504348 34.504348 0 0 0-34.504348-34.370782zM690.44313 289.391304c4.496696 0 8.681739 2.493217 10.863305 6.366609l76.176695 133.342609a11.575652 11.575652 0 0 1 1.669566 6.166261 73.327304 73.327304 0 0 1-44.143305 67.09426 5.476174 5.476174 0 0 1 0.089044 1.335653v218.401391a12.55513 12.55513 0 0 1-12.555131 12.510609h-398.914782a12.55513 12.55513 0 0 1-12.53287-12.510609v-219.937391A73.126957 73.126957 0 0 1 267.130435 435.266783c0-2.203826 0.623304-4.274087 1.669565-6.144l76.065391-133.36487A12.421565 12.421565 0 0 1 355.728696 289.391304z m-45.634782 186.724174a73.371826 73.371826 0 0 1-121.566609 0 73.572174 73.572174 0 0 1-121.766956 0 73.416348 73.416348 0 0 1-60.883479 32.278261c-1.469217 0-2.916174 0-4.385391-0.089043v201.394087h44.454957v-135.034435a42.963478 42.963478 0 0 1 43.008-42.807652h36.507826a42.963478 42.963478 0 0 1 42.985739 42.807652v134.945391h206.848v-201.305043c-1.469217 0-2.82713 0.111304-4.296348 0.111304a73.416348 73.416348 0 0 1-60.883478-32.300522z m-184.542609 80.740174h-36.507826a17.853217 17.853217 0 0 0-17.875478 17.808696v134.945391h72.281043v-134.945391c0-9.883826-8.058435-17.808696-17.875478-17.808696z m170.651826 0c5.231304 0 9.416348 4.274087 9.416348 9.371826v53.136696a9.416348 9.416348 0 0 1-9.416348 9.394087h-69.587478a9.416348 9.416348 0 0 1-9.416348-9.394087v-53.136696c0-5.209043 4.296348-9.371826 9.416348-9.371826h69.587478z m122.390261-113.040695h-95.098435a48.172522 48.172522 0 0 0 47.504696 39.579826 48.461913 48.461913 0 0 0 47.593739-39.579826z m-121.766956-0.111305h-94.987131a48.172522 48.172522 0 0 0 47.482435 39.602087 48.172522 48.172522 0 0 0 47.504696-39.624348z m-121.677913 0h-95.098435a48.37287 48.37287 0 0 0 95.098435 0z m-121.677914 0h-95.076173a48.083478 48.083478 0 0 0 47.482434 39.602087c23.752348 0 43.631304-17.096348 47.593739-39.624348z m294.934261-129.202087H363.074783l-59.436522 104.292174h438.984348l-59.525566-104.292174z" fill="#2878FF" /></svg>