<?xml version="1.0" standalone="no"?><!DOCTYPE svg PUBLIC "-//W3C//DTD SVG 1.1//EN" "http://www.w3.org/Graphics/SVG/1.1/DTD/svg11.dtd"><svg class="icon" width="48px" height="48.00px" viewBox="0 0 1024 1024" version="1.1" xmlns="http://www.w3.org/2000/svg"><path d="M512 512m-512 0a512 512 0 1 0 1024 0 512 512 0 1 0-1024 0Z" fill="#E9F1FF" /><path d="M311.652174 311.652174h400.695652v445.217391H311.652174z" fill="#D4E4FF" /><path d="M699.993043 730.735304c6.90087 0 12.354783 5.87687 12.354783 13.067131 0 7.190261-5.565217 13.06713-12.354783 13.06713h-390.010434c-6.811826 0-12.354783-5.87687-12.354783-13.06713 0-7.190261 5.565217-13.06713 12.332522-13.067131z m0-107.341913c6.90087 0 12.354783 5.87687 12.354783 13.04487 0 7.190261-5.565217 13.06713-12.354783 13.06713h-390.010434c-6.811826 0-12.354783-5.87687-12.354783-13.06713 0-7.168 5.565217-13.04487 12.332522-13.04487z m0-107.364174c6.90087 0 12.354783 5.87687 12.354783 13.067131 0 7.190261-5.565217 13.06713-12.354783 13.06713h-390.010434c-6.811826 0-12.354783-5.87687-12.354783-13.06713 0-7.190261 5.565217-13.06713 12.332522-13.067131zM347.737043 267.130435c6.789565 0 12.332522 5.87687 12.332522 13.06713v18.832696h24.086261c6.789565 0 12.332522 5.87687 12.332522 13.06713 0 7.190261-5.565217 13.06713-12.332522 13.067131h-50.843826c-10.596174 0-19.233391 9.126957-19.233391 20.368695 0 11.197217 8.637217 20.346435 19.233391 20.346435h28.827826c24.264348 0 43.920696 20.925217 43.920696 46.502957 0 25.466435-19.344696 46.146783-43.319652 46.480695h-2.671305v19.166609c0 7.190261-5.565217 13.06713-12.332522 13.06713-6.811826 0-12.354783-5.87687-12.354782-13.06713v-19.144348h-24.998957c-6.789565 0-12.354783-5.89913-12.354782-13.089391 0-7.190261 5.565217-13.06713 12.354782-13.067131h51.756522c10.596174 0 19.233391-9.126957 19.233391-20.346434s-8.637217-20.368696-19.233391-20.368696h-28.827826c-24.175304 0-43.809391-20.902957-43.920696-46.480696 0-25.711304 19.745391-46.502957 43.920696-46.502956h2.070261v-18.832696c0-7.190261 5.565217-13.06713 12.354782-13.06713z m352.256 141.534608c6.90087 0 12.354783 5.87687 12.354783 13.067131 0 7.190261-5.565217 13.06713-12.354783 13.06713h-232.626086c-6.767304 0-12.332522-5.87687-12.332522-13.06713 0-7.190261 5.565217-13.06713 12.354782-13.067131z m0-107.341913c6.789565 0 12.354783 5.87687 12.354783 13.067131 0 7.190261-5.565217 13.06713-12.354783 13.06713h-232.626086c-6.767304 0-12.332522-5.87687-12.332522-13.06713 0-7.190261 5.565217-13.06713 12.354782-13.067131z" fill="#2878FF" /></svg>