<?xml version="1.0" standalone="no"?><!DOCTYPE svg PUBLIC "-//W3C//DTD SVG 1.1//EN" "http://www.w3.org/Graphics/SVG/1.1/DTD/svg11.dtd"><svg class="icon" width="48px" height="48.00px" viewBox="0 0 1024 1024" version="1.1" xmlns="http://www.w3.org/2000/svg"><path d="M512 512m-512 0a512 512 0 1 0 1024 0 512 512 0 1 0-1024 0Z" fill="#E9F1FF" /><path d="M371.088696 779.130435c-32.52313 0-59.058087-21.481739-59.436522-48.194783L345.199304 356.173913h55.340522v52.313044a15.003826 15.003826 0 0 0 30.029913 0V356.173913h162.504348v52.313044a15.003826 15.003826 0 0 0 30.007652 0V356.173913h77.979826L734.608696 731.046957c-0.378435 26.601739-26.913391 48.083478-59.436522 48.083478H371.088696z" fill="#D0E2FF" /><path d="M734.608696 724.23513l-32.055653-375.340521a13.957565 13.957565 0 0 0-13.84626-13.067131h-67.584C620.989217 273.408 572.082087 222.608696 512 222.608696c-60.104348 0-108.989217 50.799304-109.122783 113.218782h-67.584a14.113391 14.113391 0 0 0-13.84626 13.067131L289.391304 724.23513v1.335653C289.391304 767.354435 326.41113 801.391304 371.867826 801.391304h280.264348C697.58887 801.391304 734.608696 767.376696 734.608696 725.548522v-1.313392zM512 251.369739c44.877913 0 81.318957 37.843478 81.430261 84.457739h-162.860522c0.111304-46.614261 36.552348-84.457739 81.430261-84.457739z m-109.122783 113.218783v50.420869c0 7.92487 6.233043 14.380522 13.846261 14.380522 7.613217 0 13.846261-6.455652 13.846261-14.380522v-50.420869h162.860522v50.420869c0 7.92487 6.233043 14.380522 13.846261 14.380522 7.613217 0 13.846261-6.455652 13.846261-14.380522v-50.420869h54.895304l30.898087 361.561043c-0.333913 25.644522-24.798609 46.369391-54.761739 46.369392H371.845565c-29.985391 0-54.450087-20.72487-54.784-46.480696l30.898087-361.449739h54.895305zM512 498.287304a14.157913 14.157913 0 0 0-13.846261 14.380522v57.388522h-55.251478a14.157913 14.157913 0 0 0-13.824 14.358261c0 7.92487 6.233043 14.380522 13.824 14.380521h55.251478v57.388522c0 7.902609 6.233043 14.380522 13.846261 14.380522 7.613217 0 13.846261-6.455652 13.846261-14.380522V598.817391h55.251478c7.613217 0 13.824-6.455652 13.824-14.380521a14.157913 14.157913 0 0 0-13.824-14.358261h-55.251478V512.667826a14.157913 14.157913 0 0 0-13.846261-14.380522z" fill="#2878FF" /></svg>