<?xml version="1.0" standalone="no"?><!DOCTYPE svg PUBLIC "-//W3C//DTD SVG 1.1//EN" "http://www.w3.org/Graphics/SVG/1.1/DTD/svg11.dtd"><svg t="1578022374597" class="icon" viewBox="0 0 1024 1024" version="1.1" xmlns="http://www.w3.org/2000/svg" p-id="7010" xmlns:xlink="http://www.w3.org/1999/xlink" width="48" height="48"><defs><style type="text/css">@font-face { font-weight: 400; font-style: normal; font-family: Inter-Loom; src: url("https://cdn.loom.com/assets/fonts/inter/Inter-UI-Regular.woff2") format("woff2"); }
@font-face { font-weight: 400; font-style: italic; font-family: Inter-Loom; src: url("https://cdn.loom.com/assets/fonts/inter/Inter-UI-Italic.woff2") format("woff2"); }
@font-face { font-weight: 500; font-style: normal; font-family: Inter-Loom; src: url("https://cdn.loom.com/assets/fonts/inter/Inter-UI-Medium.woff2") format("woff2"); }
@font-face { font-weight: 500; font-style: italic; font-family: Inter-Loom; src: url("https://cdn.loom.com/assets/fonts/inter/Inter-UI-MediumItalic.woff2") format("woff2"); }
@font-face { font-weight: 700; font-style: normal; font-family: Inter-Loom; src: url("https://cdn.loom.com/assets/fonts/inter/Inter-UI-Bold.woff2") format("woff2"); }
@font-face { font-weight: 700; font-style: italic; font-family: Inter-Loom; src: url("https://cdn.loom.com/assets/fonts/inter/Inter-UI-BoldItalic.woff2") format("woff2"); }
@font-face { font-weight: 900; font-style: normal; font-family: Inter-Loom; src: url("https://cdn.loom.com/assets/fonts/inter/Inter-UI-Black.woff2") format("woff2"); }
@font-face { font-weight: 900; font-style: italic; font-family: Inter-Loom; src: url("https://cdn.loom.com/assets/fonts/inter/Inter-UI-BlackItalic.woff2") format("woff2"); }
</style></defs><path d="M0 0m358.4 0l307.2 0q358.4 0 358.4 358.4l0 307.2q0 358.4-358.4 358.4l-307.2 0q-358.4 0-358.4-358.4l0-307.2q0-358.4 358.4-358.4Z" fill="#2878FF" fill-opacity=".1" p-id="7011"></path><path d="M696.32 504.7552V696.32a20.48 20.48 0 0 1-20.48 20.48H348.16a20.48 20.48 0 0 1-20.48-20.48v-191.5648A81.6128 81.6128 0 0 1 307.2 450.56v-122.88a20.48 20.48 0 0 1 20.48-20.48h368.64a20.48 20.48 0 0 1 20.48 20.48v122.88c0 19.968-7.2704 39.2448-20.48 54.1952zM552.96 450.56a20.48 20.48 0 1 1 40.96 0 40.96 40.96 0 1 0 81.92 0v-102.4H348.16v102.4a40.96 40.96 0 1 0 81.92 0 20.48 20.48 0 0 1 40.96 0 40.96 40.96 0 1 0 81.92 0z" fill="#2878FF" p-id="7012"></path></svg>