<?xml version="1.0" standalone="no"?><!DOCTYPE svg PUBLIC "-//W3C//DTD SVG 1.1//EN" "http://www.w3.org/Graphics/SVG/1.1/DTD/svg11.dtd"><svg class="icon" width="48px" height="48.00px" viewBox="0 0 1024 1024" version="1.1" xmlns="http://www.w3.org/2000/svg"><path d="M0 0m358.4 0l307.2 0q358.4 0 358.4 358.4l0 307.2q0 358.4-358.4 358.4l-307.2 0q-358.4 0-358.4-358.4l0-307.2q0-358.4 358.4-358.4Z" fill="#E9F1FF" /><path d="M512 742.4a230.4 230.4 0 1 1 0-460.8 230.4 230.4 0 0 1 0 460.8z m-18.816-218.112l-40.7552-40.7296a11.52 11.52 0 0 0-16.3072 0l-24.4224 24.4224a11.52 11.52 0 0 0 0 16.3072l48.2048 48.1792 0.6656 0.768 24.448 24.4224a11.52 11.52 0 0 0 16.2816 0l122.1888-122.1888a11.52 11.52 0 0 0 0-16.3072l-24.448-24.4224a11.52 11.52 0 0 0-16.2816 0l-89.5744 89.5744z" fill="#2878FF" /></svg>