<?xml version="1.0" standalone="no"?><!DOCTYPE svg PUBLIC "-//W3C//DTD SVG 1.1//EN" "http://www.w3.org/Graphics/SVG/1.1/DTD/svg11.dtd"><svg class="icon" width="48px" height="48.00px" viewBox="0 0 1024 1024" version="1.1" xmlns="http://www.w3.org/2000/svg"><path d="M0 0m358.4 0l307.2 0q358.4 0 358.4 358.4l0 307.2q0 358.4-358.4 358.4l-307.2 0q-358.4 0-358.4-358.4l0-307.2q0-358.4 358.4-358.4Z" fill="#E9F1FF" /><path d="M304.64 466.4832h414.72v227.6608a22.784 22.784 0 0 1-22.8864 22.656H327.5264a23.04 23.04 0 0 1-16.2048-6.656 22.4768 22.4768 0 0 1-6.6816-16v-227.6608zM442.88 512v45.5168h138.24V512h-138.24zM281.6 329.9584c0-12.544 10.496-22.7584 22.8608-22.7584h415.0784c12.6208 0 22.8608 10.112 22.8608 22.7584v91.008H281.6V329.984z" fill="#2878FF" /></svg>