<?xml version="1.0" standalone="no"?><!DOCTYPE svg PUBLIC "-//W3C//DTD SVG 1.1//EN" "http://www.w3.org/Graphics/SVG/1.1/DTD/svg11.dtd"><svg t="1570786839962" class="icon" viewBox="0 0 1024 1024" version="1.1" xmlns="http://www.w3.org/2000/svg" p-id="2936" xmlns:xlink="http://www.w3.org/1999/xlink" width="200" height="200"><defs><style type="text/css"></style></defs><path d="M571.0848 34.0992l325.248 187.8016a118.144 118.144 0 0 1 59.0848 102.3232v375.552c0 42.24-22.528 81.2288-59.0848 102.3232l-325.248 187.8016a118.144 118.144 0 0 1-118.1696 0L127.6672 802.0992A118.144 118.144 0 0 1 68.608 699.776v-375.552c0-42.24 22.528-81.2288 59.0848-102.3232l325.248-187.8016a118.144 118.144 0 0 1 118.1696 0z" fill="#C8E0FF" p-id="2937"></path><path d="M512 512m-256 0a256 256 0 1 0 512 0 256 256 0 1 0-512 0Z" fill="#1561DD" p-id="2938"></path><path d="M664.1408 306.2272c-115.2 57.5232-191.488 91.5456-193.1264 129.6128-0.7936 33.2288 60.0576 29.184 131.456 32.4096 77.0816 0.8192 123.3408 52.6592 105.472 98.048-62.464 131.2256-318.8736 134.4512-318.8736 134.4512s105.472-33.2032 168.7808-71.2704c100.608-56.7296 50.304-101.2736-14.592-96.4096-102.2464 4.864-157.44-37.2736-167.9872-73.728-20.2752-93.952 180.9408-144.2048 275.8912-162.816C611.4048 270.592 563.5328 256 512.4096 256A255.7184 255.7184 0 0 0 256 512c0 141.7728 114.432 256 256.4096 256C653.568 767.1808 768 652.9536 768 512a254.1824 254.1824 0 0 0-103.8592-205.7728z" fill="#679EF8" p-id="2939"></path></svg>